<svg version="1.1" viewBox="0.0 0.0 378.9737532808399 166.74540682414698" fill="none" stroke="none" stroke-linecap="square" stroke-miterlimit="10" xmlns:xlink="http://www.w3.org/1999/xlink" xmlns="http://www.w3.org/2000/svg"><clipPath id="p.0"><path d="m0 0l378.97375 0l0 166.7454l-378.97375 0l0 -166.7454z" clip-rule="nonzero"/></clipPath><g clip-path="url(#p.0)"><path fill="#000000" fill-opacity="0.0" d="m0 0l378.97375 0l0 166.7454l-378.97375 0z" fill-rule="evenodd"/><path fill="#ffffff" d="m0 0l377.7953 0l0 166.4567l-377.7953 0z" fill-rule="evenodd"/><path fill="#6aa84f" d="m235.41077 27.167978l10.740158 0l0 30.929136l-10.740158 0z" fill-rule="evenodd"/><path stroke="#000000" stroke-width="1.0" stroke-linejoin="round" stroke-linecap="butt" d="m235.41077 27.167978l10.740158 0l0 30.929136l-10.740158 0z" fill-rule="evenodd"/><path fill="#cc0000" d="m253.05478 27.168394l11.685028 0l0 30.929132l-11.685028 0z" fill-rule="evenodd"/><path stroke="#000000" stroke-width="1.0" stroke-linejoin="round" stroke-linecap="butt" d="m253.05478 27.168394l11.685028 0l0 30.929132l-11.685028 0z" fill-rule="evenodd"/><path fill="#6aa84f" d="m271.64447 27.167978l10.740173 0l0 30.929136l-10.740173 0z" fill-rule="evenodd"/><path stroke="#000000" stroke-width="1.0" stroke-linejoin="round" stroke-linecap="butt" d="m271.64447 27.167978l10.740173 0l0 30.929136l-10.740173 0z" fill-rule="evenodd"/><path fill="#6aa84f" d="m253.52887 61.144356l10.740173 0l0 30.929138l-10.740173 0z" fill-rule="evenodd"/><path stroke="#000000" stroke-width="1.0" stroke-linejoin="round" stroke-linecap="butt" d="m253.52887 61.144356l10.740173 0l0 30.929138l-10.740173 0z" fill-rule="evenodd"/><path fill="#cc0000" d="m271.17288 61.14477l11.685028 0l0 30.929134l-11.685028 0z" fill-rule="evenodd"/><path stroke="#000000" stroke-width="1.0" stroke-linejoin="round" stroke-linecap="butt" d="m271.17288 61.14477l11.685028 0l0 30.929134l-11.685028 0z" fill-rule="evenodd"/><path fill="#6aa84f" d="m289.7626 61.144356l10.740143 0l0 30.929138l-10.740143 0z" fill-rule="evenodd"/><path stroke="#000000" stroke-width="1.0" stroke-linejoin="round" stroke-linecap="butt" d="m289.7626 61.144356l10.740143 0l0 30.929138l-10.740143 0z" fill-rule="evenodd"/><path fill="#6aa84f" d="m271.64697 95.120735l10.740173 0l0 30.92913l-10.740173 0z" fill-rule="evenodd"/><path stroke="#000000" stroke-width="1.0" stroke-linejoin="round" stroke-linecap="butt" d="m271.64697 95.120735l10.740173 0l0 30.92913l-10.740173 0z" fill-rule="evenodd"/><path fill="#cc0000" d="m289.291 95.12115l11.685059 0l0 30.929138l-11.685059 0z" fill-rule="evenodd"/><path stroke="#000000" stroke-width="1.0" stroke-linejoin="round" stroke-linecap="butt" d="m289.291 95.12115l11.685059 0l0 30.929138l-11.685059 0z" fill-rule="evenodd"/><path fill="#6aa84f" d="m307.8807 95.120735l10.740143 0l0 30.92913l-10.740143 0z" fill-rule="evenodd"/><path stroke="#000000" stroke-width="1.0" stroke-linejoin="round" stroke-linecap="butt" d="m307.8807 95.120735l10.740143 0l0 30.92913l-10.740143 0z" fill-rule="evenodd"/><path fill="#000000" fill-opacity="0.0" d="m-4.8871393 -7.6614175l168.28348 0l0 40.944885l-168.28348 0z" fill-rule="evenodd"/><path fill="#000000" d="m9.206611 4.995458q1.90625 0 3.015625 0.921875q1.125 0.921875 1.1875 2.7031255l-1.4375 0q-0.125 -1.1718755 -0.84375 -1.7500005q-0.703125 -0.59375 -1.984375 -0.59375q-1.21875 0 -1.890625 0.515625q-0.671875 0.5 -0.671875 1.4375005q0 0.671875 0.5625 1.109375q0.578125 0.421875 3.109375 0.921875q1.828125 0.375 2.734375 1.15625q0.90625 0.765625 0.90625 2.140625q0 1.59375 -1.3125 2.515625q-1.296875 0.90625 -3.15625 0.90625q-2.078125 0 -3.390625 -1.046875q-1.3125 -1.046875 -1.328125 -3.0l1.4375 0q0.015625 1.3125 0.9375 2.03125q0.921875 0.71875 2.390625 0.71875q1.390625 0 2.140625 -0.53125q0.765625 -0.53125 0.765625 -1.546875q0 -0.8125 -0.703125 -1.296875q-0.6875 -0.5 -2.515625 -0.84375q-2.4375 -0.46875 -3.265625 -1.1875q-0.828125 -0.734375 -0.828125 -1.9375q0 -1.5312505 1.15625 -2.4375005q1.171875 -0.90625 2.984375 -0.90625zm14.414063 0.28125l0 1.28125l-6.375 0l0 3.6250005l5.9375 0l0 1.28125l-5.9375 0l0 3.953125l6.421875 0l0 1.28125l-7.937501 0l0 -11.421875l7.890626 0zm7.3359375 0q1.484375 0 2.4375 0.796875q0.953125 0.78125 0.953125 2.1875005q0 1.125 -0.5 1.875q-0.484375 0.734375 -1.484375 1.015625l0 0.03125q0.875 0.171875 1.28125 0.8125q0.40625 0.640625 0.46875 2.1875q0.046875 1.0 0.1875 1.578125q0.15625 0.5625 0.453125 0.9375l-1.703125 0q-0.140625 -0.1875 -0.1875 -0.375q-0.03125 -0.1875 -0.078125 -0.5l-0.0625 -1.265625q-0.015625 -0.875 -0.375 -1.78125q-0.359375 -0.921875 -1.5625 -0.96875l-3.765625 0l0 4.890625l-1.515625 0l0 -11.421875l5.453125 0zm-0.6875 5.2656255q1.265625 0 1.90625 -0.5q0.65625 -0.5 0.65625 -1.546875q0 -0.9218755 -0.515625 -1.4218755q-0.515625 -0.515625 -1.453125 -0.515625l-3.84375 0l0 3.9843755l3.25 0zm7.7734375 -5.2656255l0 11.421875l-1.515625 0l0 -11.421875l1.515625 0zm7.34375 0l4.46875 11.421875l-1.6875 0l-1.234375 -3.4375l-4.84375 0l-1.28125 3.4375l-1.5625 0l4.46875 -11.421875l1.671875 0zm-0.875 1.375l-1.9375 5.3281255l3.875 0l-1.90625 -5.3281255l-0.03125 0zm7.9765625 -1.375l0 10.140625l6.046875 0l0 1.28125l-7.5625 0l0 -11.421875l1.515625 0zm19.71875 0l0 1.28125l-6.375 0l0 3.6250005l5.9375 0l0 1.28125l-5.9375 0l0 3.953125l6.421875 0l0 1.28125l-7.9375 0l0 -11.421875l7.890625 0zm2.6640625 0l2.859375 4.4531255l2.96875 -4.4531255l1.703125 0l-3.78125 5.5468755l4.015625 5.875l-1.859375 0l-3.0625 -4.71875l-3.171875 4.71875l-1.71875 0l3.984375 -5.875l-3.75 -5.5468755l1.8125 0zm16.882812 0l0 1.28125l-6.375 0l0 3.6250005l5.9375 0l0 1.28125l-5.9375 0l0 3.953125l6.421875 0l0 1.28125l-7.9375 0l0 -11.421875l7.890625 0zm6.7265625 -0.28125q1.90625 0 3.171875 0.984375q1.28125 0.984375 1.53125 2.7343755l-1.515625 0q-0.25 -1.1718755 -1.09375 -1.7968755q-0.84375 -0.640625 -2.109375 -0.640625q-1.8125 0 -2.84375 1.28125q-1.015625 1.2812505 -1.015625 3.3437505q0 2.1875 1.0 3.484375q1.015625 1.296875 2.875 1.296875q1.40625 0 2.296875 -0.875q0.890625 -0.890625 1.0 -2.421875l1.53125 0q-0.25 2.21875 -1.546875 3.40625q-1.296875 1.1875 -3.40625 1.1875q-2.453125 0 -3.875 -1.625q-1.40625 -1.640625 -1.40625 -4.34375q0 -2.65625 1.453125 -4.3281255q1.46875 -1.6875 3.953125 -1.6875zm8.1640625 0.28125l0 7.3593755q0 1.390625 0.796875 2.21875q0.8125 0.828125 2.375 0.828125q1.484375 0 2.234375 -0.8125q0.75 -0.828125 0.75 -2.234375l0 -7.3593755l1.515625 0l0 7.3750005q0 2.015625 -1.140625 3.171875q-1.125 1.15625 -3.359375 1.15625q-2.328125 0 -3.515625 -1.125q-1.171875 -1.140625 -1.171875 -3.203125l0 -7.3750005l1.515625 0zm18.023438 0l0 1.28125l-3.8125 0l0 10.140625l-1.515625 0l0 -10.140625l-3.8125 0l0 -1.28125l9.140625 0zm2.84375 0l0 11.421875l-1.515625 0l0 -11.421875l1.515625 0zm7.3906174 -0.28125q1.671875 0 2.90625 0.78125q1.234375 0.765625 1.90625 2.15625q0.671875 1.3906255 0.671875 3.0468755q0 1.671875 -0.671875 3.0625q-0.671875 1.390625 -1.921875 2.171875q-1.234375 0.765625 -2.890625 0.765625q-1.640625 0 -2.890625 -0.765625q-1.234375 -0.78125 -1.90625 -2.15625q-0.671875 -1.390625 -0.671875 -3.078125q0 -2.59375 1.484375 -4.2812505q1.5 -1.703125 3.984375 -1.703125zm-3.953125 5.9843755q0 1.28125 0.46875 2.390625q0.46875 1.09375 1.359375 1.703125q0.90625 0.609375 2.125 0.609375q1.84375 0 2.890625 -1.3125q1.0625 -1.328125 1.0625 -3.390625q0 -2.03125 -1.046875 -3.3593755q-1.046875 -1.34375 -2.921875 -1.34375q-1.828125 0 -2.890625 1.34375q-1.046875 1.3437505 -1.046875 3.3593755zm12.890625 -5.7031255l6.015625 9.265625l0.03125 0l0 -9.265625l1.4375 0l0 11.421875l-1.671875 0l-5.96875 -9.171875l-0.03125 0l0 9.171875l-1.4375 0l0 -11.421875l1.625 0z" fill-rule="nonzero"/><path fill="#000000" fill-opacity="0.0" d="m166.27559 -7.6614175l221.22835 0l0 40.944885l-221.22835 0z" fill-rule="evenodd"/><path fill="#000000" d="m181.35371 4.995458q1.671875 0 2.90625 0.78125q1.234375 0.765625 1.90625 2.15625q0.671875 1.3906255 0.671875 3.0468755q0 1.671875 -0.671875 3.0625q-0.671875 1.390625 -1.921875 2.171875q-1.234375 0.765625 -2.890625 0.765625q-1.640625 0 -2.890625 -0.765625q-1.234375 -0.78125 -1.90625 -2.15625q-0.671875 -1.390625 -0.671875 -3.078125q0 -2.59375 1.484375 -4.2812505q1.5 -1.703125 3.984375 -1.703125zm-3.953125 5.9843755q0 1.28125 0.46875 2.390625q0.46875 1.09375 1.359375 1.703125q0.90625 0.609375 2.125 0.609375q1.84375 0 2.890625 -1.3125q1.0625 -1.328125 1.0625 -3.390625q0 -2.03125 -1.046875 -3.3593755q-1.046875 -1.34375 -2.921875 -1.34375q-1.828125 0 -2.890625 1.34375q-1.046875 1.3437505 -1.046875 3.3593755zm11.4765625 -5.7031255l3.265625 9.890625l0.03125 0l3.296875 -9.890625l1.578125 0l-4.0625 11.421875l-1.734375 0l-4.03125 -11.421875l1.65625 0zm17.273438 0l0 1.28125l-6.375 0l0 3.6250005l5.9375 0l0 1.28125l-5.9375 0l0 3.953125l6.421875 0l0 1.28125l-7.9375 0l0 -11.421875l7.890625 0zm7.3359375 0q1.484375 0 2.4375 0.796875q0.953125 0.78125 0.953125 2.1875005q0 1.125 -0.5 1.875q-0.484375 0.734375 -1.484375 1.015625l0 0.03125q0.875 0.171875 1.28125 0.8125q0.40625 0.640625 0.46875 2.1875q0.046875 1.0 0.1875 1.578125q0.15625 0.5625 0.453125 0.9375l-1.703125 0q-0.140625 -0.1875 -0.1875 -0.375q-0.03125 -0.1875 -0.078125 -0.5l-0.0625 -1.265625q-0.015625 -0.875 -0.375 -1.78125q-0.359375 -0.921875 -1.5625 -0.96875l-3.765625 0l0 4.890625l-1.515625 0l0 -11.421875l5.453125 0zm-0.6875 5.2656255q1.265625 0 1.90625 -0.5q0.65625 -0.5 0.65625 -1.546875q0 -0.9218755 -0.515625 -1.4218755q-0.515625 -0.515625 -1.453125 -0.515625l-3.84375 0l0 3.9843755l3.25 0zm7.7109375 -5.2656255l0 10.140625l6.046875 0l0 1.28125l-7.5625 0l0 -11.421875l1.515625 0zm12.1640625 0l4.46875 11.421875l-1.6875 0l-1.234375 -3.4375l-4.84375 0l-1.28125 3.4375l-1.5625 0l4.46875 -11.421875l1.671875 0zm-0.875 1.375l-1.9375 5.3281255l3.875 0l-1.90625 -5.3281255l-0.03125 0zm11.5390625 -1.375q1.578125 0 2.5 0.859375q0.9375 0.84375 0.9375 2.5156255q0 1.671875 -0.9375 2.53125q-0.921875 0.84375 -2.390625 0.84375l-3.671875 0l0 4.671875l-1.515625 0l0 -11.421875l5.078125 0zm-0.421875 5.4687505q1.09375 0 1.71875 -0.515625q0.625 -0.515625 0.625 -1.578125q0 -1.0625005 -0.625 -1.5781255q-0.609375 -0.515625 -1.8125 -0.515625l-3.046875 0l0 4.1875005l3.140625 0zm10.7890625 -5.4687505q1.578125 0 2.5000153 0.859375q0.9375 0.84375 0.9375 2.5156255q0 1.671875 -0.9375 2.53125q-0.92189026 0.84375 -2.3906403 0.84375l-3.671875 0l0 4.671875l-1.515625 0l0 -11.421875l5.078125 0zm-0.421875 5.4687505q1.09375 0 1.71875 -0.515625q0.625 -0.515625 0.625 -1.578125q0 -1.0625005 -0.625 -1.5781255q-0.609375 -0.515625 -1.8125 -0.515625l-3.046875 0l0 4.1875005l3.140625 0zm13.601578 -5.4687505l0 1.28125l-6.375 0l0 3.6250005l5.9375 0l0 1.28125l-5.9375 0l0 3.953125l6.421875 0l0 1.28125l-7.9375 0l0 -11.421875l7.890625 0zm5.8984375 0q2.59375 0 3.984375 1.375q1.40625 1.3750005 1.40625 4.0625005q0 3.015625 -1.390625 4.5q-1.375 1.484375 -4.0 1.484375l-4.015625 0l0 -11.421875l4.015625 0zm0.09375 10.140625q1.703125 0 2.734375 -1.109375q1.046875 -1.125 1.046875 -3.390625q0 -2.265625 -0.953125 -3.3125005q-0.9375 -1.046875 -2.78125 -1.046875l-2.640625 0l0 8.859375l2.59375 0zm19.492188 -10.140625l0 1.28125l-6.375 0l0 3.6250005l5.9375 0l0 1.28125l-5.9375 0l0 3.953125l6.421875 0l0 1.28125l-7.9375 0l0 -11.421875l7.890625 0zm2.6640625 0l2.859375 4.4531255l2.96875 -4.4531255l1.703125 0l-3.78125 5.5468755l4.015625 5.875l-1.859375 0l-3.0625 -4.71875l-3.171875 4.71875l-1.71875 0l3.984375 -5.875l-3.75 -5.5468755l1.8125 0zm16.882812 0l0 1.28125l-6.375 0l0 3.6250005l5.9375 0l0 1.28125l-5.9375 0l0 3.953125l6.421875 0l0 1.28125l-7.9375 0l0 -11.421875l7.890625 0zm6.7265625 -0.28125q1.90625 0 3.171875 0.984375q1.28125 0.984375 1.53125 2.7343755l-1.515625 0q-0.25 -1.1718755 -1.09375 -1.7968755q-0.84375 -0.640625 -2.109375 -0.640625q-1.8125 0 -2.84375 1.28125q-1.015625 1.2812505 -1.015625 3.3437505q0 2.1875 1.0 3.484375q1.015625 1.296875 2.875 1.296875q1.40625 0 2.296875 -0.875q0.890625 -0.890625 1.0 -2.421875l1.53125 0q-0.25 2.21875 -1.546875 3.40625q-1.296875 1.1875 -3.40625 1.1875q-2.453125 0 -3.875 -1.625q-1.40625 -1.640625 -1.40625 -4.34375q0 -2.65625 1.453125 -4.3281255q1.46875 -1.6875 3.953125 -1.6875zm8.1640625 0.28125l0 7.3593755q0 1.390625 0.796875 2.21875q0.8125 0.828125 2.375 0.828125q1.484375 0 2.234375 -0.8125q0.75 -0.828125 0.75 -2.234375l0 -7.3593755l1.515625 0l0 7.3750005q0 2.015625 -1.140625 3.171875q-1.125 1.15625 -3.359375 1.15625q-2.328125 0 -3.515625 -1.125q-1.171875 -1.140625 -1.171875 -3.203125l0 -7.3750005l1.515625 0zm18.023438 0l0 1.28125l-3.8125 0l0 10.140625l-1.515625 0l0 -10.140625l-3.8125 0l0 -1.28125l9.140625 0zm2.84375 0l0 11.421875l-1.515625 0l0 -11.421875l1.515625 0zm7.390625 -0.28125q1.671875 0 2.90625 0.78125q1.234375 0.765625 1.90625 2.15625q0.671875 1.3906255 0.671875 3.0468755q0 1.671875 -0.671875 3.0625q-0.671875 1.390625 -1.921875 2.171875q-1.234375 0.765625 -2.890625 0.765625q-1.640625 0 -2.890625 -0.765625q-1.234375 -0.78125 -1.90625 -2.15625q-0.671875 -1.390625 -0.671875 -3.078125q0 -2.59375 1.484375 -4.2812505q1.5 -1.703125 3.984375 -1.703125zm-3.953125 5.9843755q0 1.28125 0.46875 2.390625q0.46875 1.09375 1.359375 1.703125q0.90625 0.609375 2.125 0.609375q1.84375 0 2.890625 -1.3125q1.0625 -1.328125 1.0625 -3.390625q0 -2.03125 -1.046875 -3.3593755q-1.046875 -1.34375 -2.921875 -1.34375q-1.828125 0 -2.890625 1.34375q-1.046875 1.3437505 -1.046875 3.3593755zm12.890625 -5.7031255l6.015625 9.265625l0.03125 0l0 -9.265625l1.4375 0l0 11.421875l-1.671875 0l-5.96875 -9.171875l-0.03125 0l0 9.171875l-1.4375 0l0 -11.421875l1.625 0z" fill-rule="nonzero"/><path fill="#000000" fill-opacity="0.0" d="m8.396325 38.49226c0 -1.3569794 1.1000519 -2.4570312 2.4570332 -2.4570312l18.56625 0c1.3569813 0 2.4570332 -1.1000519 2.4570332 -2.457035c0 1.3569832 1.1000519 2.457035 2.457035 2.457035l18.566246 0l0 0c1.3569832 0 2.457035 1.1000519 2.457035 2.4570312l0 21.793915c0 0.65164566 -0.25886536 1.2766037 -0.71965027 1.7373848c-0.4607811 0.4607849 -1.0857391 0.71965027 -1.7373848 0.71965027l-18.566246 0c-1.3569832 0 -2.457035 1.1000519 -2.457035 2.4570312c0 -1.3569794 -1.1000519 -2.4570312 -2.4570332 -2.4570312l-18.56625 0c-1.3569813 0 -2.4570332 -1.1000519 -2.4570332 -2.457035z" fill-rule="evenodd"/><path fill="#000000" fill-opacity="0.0" d="m8.396325 38.49226c0 -1.3569794 1.1000519 -2.4570312 2.4570332 -2.4570312l18.56625 0c1.3569813 0 2.4570332 -1.1000519 2.4570332 -2.457035c0 1.3569832 1.1000519 2.457035 2.457035 2.457035l18.566246 0l0 0c1.3569832 0 2.457035 1.1000519 2.457035 2.4570312m0 21.793915c0 0.65164566 -0.25886536 1.2766037 -0.71965027 1.7373848c-0.4607811 0.4607849 -1.0857391 0.71965027 -1.7373848 0.71965027l-18.566246 0c-1.3569832 0 -2.457035 1.1000519 -2.457035 2.4570312c0 -1.3569794 -1.1000519 -2.4570312 -2.4570332 -2.4570312l-18.56625 0c-1.3569813 0 -2.4570332 -1.1000519 -2.4570332 -2.457035" fill-rule="evenodd"/><path stroke="#000000" stroke-width="1.0" stroke-linejoin="round" stroke-linecap="butt" d="m8.396325 38.49226c0 -1.3569794 1.1000519 -2.4570312 2.4570332 -2.4570312l18.56625 0c1.3569813 0 2.4570332 -1.1000519 2.4570332 -2.457035c0 1.3569832 1.1000519 2.457035 2.457035 2.457035l18.566246 0l0 0c1.3569832 0 2.457035 1.1000519 2.457035 2.4570312m0 21.793915c0 0.65164566 -0.25886536 1.2766037 -0.71965027 1.7373848c-0.4607811 0.4607849 -1.0857391 0.71965027 -1.7373848 0.71965027l-18.566246 0c-1.3569832 0 -2.457035 1.1000519 -2.457035 2.4570312c0 -1.3569794 -1.1000519 -2.4570312 -2.4570332 -2.4570312l-18.56625 0c-1.3569813 0 -2.4570332 -1.1000519 -2.4570332 -2.457035" fill-rule="evenodd"/><path fill="#ffffff" d="m5.3884516 23.206327l52.97638 0l0 35.90551l-52.97638 0z" fill-rule="evenodd"/><path fill="#6aa84f" d="m8.389764 27.167978l10.740157 0l0 30.929136l-10.740157 0z" fill-rule="evenodd"/><path stroke="#000000" stroke-width="1.0" stroke-linejoin="round" stroke-linecap="butt" d="m8.389764 27.167978l10.740157 0l0 30.929136l-10.740157 0z" fill-rule="evenodd"/><path fill="#cc0000" d="m26.033777 27.168394l11.685038 0l0 30.929132l-11.685038 0z" fill-rule="evenodd"/><path stroke="#000000" stroke-width="1.0" stroke-linejoin="round" stroke-linecap="butt" d="m26.033777 27.168394l11.685038 0l0 30.929132l-11.685038 0z" fill-rule="evenodd"/><path fill="#6aa84f" d="m44.62348 27.167978l10.740158 0l0 30.929136l-10.740158 0z" fill-rule="evenodd"/><path stroke="#000000" stroke-width="1.0" stroke-linejoin="round" stroke-linecap="butt" d="m44.62348 27.167978l10.740158 0l0 30.929136l-10.740158 0z" fill-rule="evenodd"/><path fill="#000000" fill-opacity="0.0" d="m61.15252 72.39369c0 -1.3569794 1.1000519 -2.4570312 2.4570312 -2.4570312l18.566246 0c1.356987 0 2.4570389 -1.1000519 2.4570389 -2.4570312c0 1.3569794 1.1000519 2.4570312 2.4570312 2.4570312l18.566246 0l0 0c1.356987 0 2.4570389 1.1000519 2.4570389 2.4570312l0 21.793915c0 0.6516495 -0.25886536 1.2766037 -0.71965027 1.7373886c-0.4607849 0.4607849 -1.0857391 0.71965027 -1.7373886 0.71965027l-18.566246 0c-1.3569794 0 -2.4570312 1.1000519 -2.4570312 2.4570312c0 -1.3569794 -1.1000519 -2.4570312 -2.4570389 -2.4570312l-18.566246 0c-1.3569794 0 -2.4570312 -1.1000519 -2.4570312 -2.4570389z" fill-rule="evenodd"/><path fill="#000000" fill-opacity="0.0" d="m61.15252 72.39369c0 -1.3569794 1.1000519 -2.4570312 2.4570312 -2.4570312l18.566246 0c1.356987 0 2.4570389 -1.1000519 2.4570389 -2.4570312c0 1.3569794 1.1000519 2.4570312 2.4570312 2.4570312l18.566246 0l0 0c1.356987 0 2.4570389 1.1000519 2.4570389 2.4570312m0 21.793915c0 0.6516495 -0.25886536 1.2766037 -0.71965027 1.7373886c-0.4607849 0.4607849 -1.0857391 0.71965027 -1.7373886 0.71965027l-18.566246 0c-1.3569794 0 -2.4570312 1.1000519 -2.4570312 2.4570312c0 -1.3569794 -1.1000519 -2.4570312 -2.4570389 -2.4570312l-18.566246 0c-1.3569794 0 -2.4570312 -1.1000519 -2.4570312 -2.4570389" fill-rule="evenodd"/><path stroke="#000000" stroke-width="1.0" stroke-linejoin="round" stroke-linecap="butt" d="m61.15252 72.39369c0 -1.3569794 1.1000519 -2.4570312 2.4570312 -2.4570312l18.566246 0c1.356987 0 2.4570389 -1.1000519 2.4570389 -2.4570312c0 1.3569794 1.1000519 2.4570312 2.4570312 2.4570312l18.566246 0l0 0c1.356987 0 2.4570389 1.1000519 2.4570389 2.4570312m0 21.793915c0 0.6516495 -0.25886536 1.2766037 -0.71965027 1.7373886c-0.4607849 0.4607849 -1.0857391 0.71965027 -1.7373886 0.71965027l-18.566246 0c-1.3569794 0 -2.4570312 1.1000519 -2.4570312 2.4570312c0 -1.3569794 -1.1000519 -2.4570312 -2.4570389 -2.4570312l-18.566246 0c-1.3569794 0 -2.4570312 -1.1000519 -2.4570312 -2.4570389" fill-rule="evenodd"/><path fill="#ffffff" d="m58.144646 57.10776l52.97638 0l0 35.905514l-52.97638 0z" fill-rule="evenodd"/><path fill="#6aa84f" d="m61.227036 61.144356l10.740158 0l0 30.929138l-10.740158 0z" fill-rule="evenodd"/><path stroke="#000000" stroke-width="1.0" stroke-linejoin="round" stroke-linecap="butt" d="m61.227036 61.144356l10.740158 0l0 30.929138l-10.740158 0z" fill-rule="evenodd"/><path fill="#cc0000" d="m78.87105 61.14477l11.685036 0l0 30.929134l-11.685036 0z" fill-rule="evenodd"/><path stroke="#000000" stroke-width="1.0" stroke-linejoin="round" stroke-linecap="butt" d="m78.87105 61.14477l11.685036 0l0 30.929134l-11.685036 0z" fill-rule="evenodd"/><path fill="#6aa84f" d="m97.460754 61.144356l10.740158 0l0 30.929138l-10.740158 0z" fill-rule="evenodd"/><path stroke="#000000" stroke-width="1.0" stroke-linejoin="round" stroke-linecap="butt" d="m97.460754 61.144356l10.740158 0l0 30.929138l-10.740158 0z" fill-rule="evenodd"/><path fill="#000000" fill-opacity="0.0" d="m116.42811 106.369354c0 -1.3569794 1.1000519 -2.4570312 2.4570312 -2.4570312l18.566246 0c1.3569794 0 2.4570312 -1.1000519 2.4570312 -2.4570312c0 1.3569794 1.1000519 2.4570312 2.4570465 2.4570312l18.566238 0l0 0c1.3569794 0 2.4570312 1.1000519 2.4570312 2.4570312l0 21.793915c0 0.65164185 -0.25886536 1.2765961 -0.71965027 1.737381c-0.46076965 0.4607849 -1.0857239 0.71965027 -1.737381 0.71965027l-18.566238 0c-1.3569946 0 -2.4570465 1.1000519 -2.4570465 2.4570312c0 -1.3569794 -1.1000519 -2.4570312 -2.4570312 -2.4570312l-18.566246 0c-1.3569794 0 -2.4570312 -1.1000519 -2.4570312 -2.4570312z" fill-rule="evenodd"/><path fill="#000000" fill-opacity="0.0" d="m116.42811 106.369354c0 -1.3569794 1.1000519 -2.4570312 2.4570312 -2.4570312l18.566246 0c1.3569794 0 2.4570312 -1.1000519 2.4570312 -2.4570312c0 1.3569794 1.1000519 2.4570312 2.4570465 2.4570312l18.566238 0l0 0c1.3569794 0 2.4570312 1.1000519 2.4570312 2.4570312m0 21.793915c0 0.65164185 -0.25886536 1.2765961 -0.71965027 1.737381c-0.46076965 0.4607849 -1.0857239 0.71965027 -1.737381 0.71965027l-18.566238 0c-1.3569946 0 -2.4570465 1.1000519 -2.4570465 2.4570312c0 -1.3569794 -1.1000519 -2.4570312 -2.4570312 -2.4570312l-18.566246 0c-1.3569794 0 -2.4570312 -1.1000519 -2.4570312 -2.4570312" fill-rule="evenodd"/><path stroke="#000000" stroke-width="1.0" stroke-linejoin="round" stroke-linecap="butt" d="m116.42811 106.369354c0 -1.3569794 1.1000519 -2.4570312 2.4570312 -2.4570312l18.566246 0c1.3569794 0 2.4570312 -1.1000519 2.4570312 -2.4570312c0 1.3569794 1.1000519 2.4570312 2.4570465 2.4570312l18.566238 0l0 0c1.3569794 0 2.4570312 1.1000519 2.4570312 2.4570312m0 21.793915c0 0.65164185 -0.25886536 1.2765961 -0.71965027 1.737381c-0.46076965 0.4607849 -1.0857239 0.71965027 -1.737381 0.71965027l-18.566238 0c-1.3569946 0 -2.4570465 1.1000519 -2.4570465 2.4570312c0 -1.3569794 -1.1000519 -2.4570312 -2.4570312 -2.4570312l-18.566246 0c-1.3569794 0 -2.4570312 -1.1000519 -2.4570312 -2.4570312" fill-rule="evenodd"/><path fill="#ffffff" d="m113.420235 91.08342l52.97637 0l0 35.90551l-52.97637 0z" fill-rule="evenodd"/><path fill="#6aa84f" d="m116.42126 95.120735l10.740158 0l0 30.92913l-10.740158 0z" fill-rule="evenodd"/><path stroke="#000000" stroke-width="1.0" stroke-linejoin="round" stroke-linecap="butt" d="m116.42126 95.120735l10.740158 0l0 30.92913l-10.740158 0z" fill-rule="evenodd"/><path fill="#cc0000" d="m134.06528 95.12115l11.685028 0l0 30.929138l-11.685028 0z" fill-rule="evenodd"/><path stroke="#000000" stroke-width="1.0" stroke-linejoin="round" stroke-linecap="butt" d="m134.06528 95.12115l11.685028 0l0 30.929138l-11.685028 0z" fill-rule="evenodd"/><path fill="#6aa84f" d="m152.65498 95.120735l10.740158 0l0 30.92913l-10.740158 0z" fill-rule="evenodd"/><path stroke="#000000" stroke-width="1.0" stroke-linejoin="round" stroke-linecap="butt" d="m152.65498 95.120735l10.740158 0l0 30.92913l-10.740158 0z" fill-rule="evenodd"/><path fill="#000000" fill-opacity="0.0" d="m-9.800089 55.984253l80.88189 0l0 35.90551l-80.88189 0z" fill-rule="evenodd"/><path fill="#000000" d="m14.672876 68.20988l0 -0.9375l0.8125 0l0 0.9375l-0.8125 0zm0 5.734375l0 -4.84375l0.8125 0l0 4.84375l-0.8125 0zm3.8536682 -0.734375l0.109375 0.71875q-0.34375 0.078125 -0.609375 0.078125q-0.453125 0 -0.703125 -0.140625q-0.234375 -0.140625 -0.34375 -0.359375q-0.09375 -0.234375 -0.09375 -0.984375l0 -2.78125l-0.609375 0l0 -0.640625l0.609375 0l0 -1.1875l0.8125 -0.5l0 1.6875l0.828125 0l0 0.640625l-0.828125 0l0 2.828125q0 0.359375 0.046875 0.46875q0.046875 0.09375 0.140625 0.15625q0.09375 0.046875 0.28125 0.046875q0.140625 0 0.359375 -0.03125zm4.1072845 -0.828125l0.84375 0.109375q-0.1875 0.75 -0.734375 1.15625q-0.546875 0.40625 -1.390625 0.40625q-1.0625 0 -1.6875 -0.65625q-0.609375 -0.65625 -0.609375 -1.828125q0 -1.21875 0.625 -1.890625q0.625 -0.6875 1.625 -0.6875q0.984375 0 1.59375 0.671875q0.609375 0.65625 0.609375 1.859375q0 0.0625 0 0.21875l-3.609375 0q0.046875 0.796875 0.453125 1.21875q0.40625 0.421875 1.015625 0.421875q0.453125 0 0.765625 -0.234375q0.3125 -0.234375 0.5 -0.765625zm-2.6875 -1.328125l2.703125 0q-0.0625 -0.609375 -0.3125 -0.90625q-0.390625 -0.46875 -1.015625 -0.46875q-0.5625 0 -0.953125 0.375q-0.375 0.375 -0.421875 1.0zm4.562866 2.890625l0 -4.84375l0.734375 0l0 0.734375q0.28125 -0.515625 0.515625 -0.671875q0.25 -0.171875 0.53125 -0.171875q0.421875 0 0.84375 0.265625l-0.28125 0.765625q-0.296875 -0.171875 -0.609375 -0.171875q-0.265625 0 -0.484375 0.15625q-0.203125 0.15625 -0.296875 0.453125q-0.140625 0.4375 -0.140625 0.953125l0 2.53125l-0.8125 0zm6.2625885 -0.59375q-0.453125 0.390625 -0.875 0.546875q-0.421875 0.15625 -0.90625 0.15625q-0.796875 0 -1.21875 -0.390625q-0.421875 -0.390625 -0.421875 -1.0q0 -0.34375 0.15625 -0.640625q0.15625 -0.296875 0.421875 -0.46875q0.265625 -0.1875 0.59375 -0.28125q0.234375 -0.0625 0.71875 -0.109375q1.0 -0.125 1.46875 -0.28125q0 -0.171875 0 -0.21875q0 -0.5 -0.234375 -0.703125q-0.3125 -0.28125 -0.921875 -0.28125q-0.578125 0 -0.859375 0.203125q-0.28125 0.203125 -0.40625 0.71875l-0.796875 -0.109375q0.109375 -0.515625 0.359375 -0.828125q0.25 -0.328125 0.71875 -0.5q0.46875 -0.171875 1.09375 -0.171875q0.625 0 1.0 0.15625q0.390625 0.140625 0.578125 0.359375q0.1875 0.21875 0.25 0.5625q0.046875 0.203125 0.046875 0.75l0 1.09375q0 1.140625 0.046875 1.453125q0.0625 0.296875 0.21875 0.578125l-0.859375 0q-0.125 -0.25 -0.171875 -0.59375zm-0.0625 -1.828125q-0.453125 0.171875 -1.34375 0.296875q-0.5 0.078125 -0.71875 0.171875q-0.203125 0.09375 -0.3125 0.265625q-0.109375 0.171875 -0.109375 0.390625q0 0.328125 0.234375 0.546875q0.25 0.21875 0.734375 0.21875q0.46875 0 0.828125 -0.203125q0.375 -0.21875 0.5625 -0.578125q0.125 -0.265625 0.125 -0.8125l0 -0.296875zm3.890993 1.6875l0.109375 0.71875q-0.34375 0.078125 -0.609375 0.078125q-0.453125 0 -0.703125 -0.140625q-0.234375 -0.140625 -0.34375 -0.359375q-0.09375 -0.234375 -0.09375 -0.984375l0 -2.78125l-0.609375 0l0 -0.640625l0.609375 0l0 -1.1875l0.8125 -0.5l0 1.6875l0.828125 0l0 0.640625l-0.828125 0l0 2.828125q0 0.359375 0.046875 0.46875q0.046875 0.09375 0.140625 0.15625q0.09375 0.046875 0.28125 0.046875q0.140625 0 0.359375 -0.03125zm0.81040955 -5.0l0 -0.9375l0.8125 0l0 0.9375l-0.8125 0zm0 5.734375l0 -4.84375l0.8125 0l0 4.84375l-0.8125 0zm1.7599182 -2.421875q0 -1.34375 0.75 -1.984375q0.625 -0.546875 1.515625 -0.546875q1.0 0 1.625 0.65625q0.640625 0.65625 0.640625 1.8125q0 0.9375 -0.28125 1.46875q-0.28125 0.53125 -0.8125 0.828125q-0.53125 0.296875 -1.171875 0.296875q-1.015625 0 -1.640625 -0.640625q-0.625 -0.65625 -0.625 -1.890625zm0.84375 0q0 0.9375 0.40625 1.40625q0.40625 0.453125 1.015625 0.453125q0.609375 0 1.015625 -0.46875q0.40625 -0.46875 0.40625 -1.421875q0 -0.890625 -0.40625 -1.34375q-0.40625 -0.46875 -1.015625 -0.46875q-0.609375 0 -1.015625 0.46875q-0.40625 0.453125 -0.40625 1.375zm4.640991 2.421875l0 -4.84375l0.75 0l0 0.6875q0.53125 -0.796875 1.53125 -0.796875q0.4375 0 0.796875 0.171875q0.375 0.15625 0.546875 0.40625q0.1875 0.25 0.265625 0.609375q0.046875 0.21875 0.046875 0.796875l0 2.96875l-0.828125 0l0 -2.9375q0 -0.5 -0.09375 -0.75q-0.09375 -0.25 -0.34375 -0.390625q-0.234375 -0.15625 -0.5625 -0.15625q-0.515625 0 -0.90625 0.328125q-0.375 0.328125 -0.375 1.265625l0 2.640625l-0.828125 0z" fill-rule="nonzero"/><path fill="#000000" d="m27.553576 79.00675q0.1875 0 0.3125 0.140625q0.140625 0.125 0.140625 0.328125q0 0.1875 -0.140625 0.328125q-0.140625 0.125 -0.3125 0.125q-0.1875 0 -0.328125 -0.125q-0.140625 -0.140625 -0.140625 -0.328125q0 -0.203125 0.125 -0.328125q0.140625 -0.140625 0.34375 -0.140625zm0.046875 1.8125l-0.890625 3.203125q-0.09375 0.3125 -0.09375 0.375q0 0.078125 0.03125 0.125q0.046875 0.046875 0.109375 0.046875q0.0625 0 0.171875 -0.078125q0.25 -0.203125 0.515625 -0.578125l0.15625 0.109375q-0.3125 0.46875 -0.71875 0.796875q-0.3125 0.234375 -0.59375 0.234375q-0.1875 0 -0.3125 -0.109375q-0.109375 -0.109375 -0.109375 -0.28125q0 -0.171875 0.109375 -0.5625l0.59375 -2.046875q0.140625 -0.5 0.140625 -0.625q0 -0.09375 -0.078125 -0.15625q-0.0625 -0.0625 -0.1875 -0.0625q-0.09375 0 -0.40625 0.046875l0 -0.171875l1.5625 -0.265625zm3.2479095 1.796875l-0.1875 0.609375l-2.359375 0l0.1875 -0.609375l2.359375 0zm4.2000904 -3.96875l-1.46875 5.09375q-0.125 0.453125 -0.125 0.65625q0 0.171875 0.109375 0.265625q0.125 0.078125 0.546875 0.109375l-0.03125 0.171875l-2.359377 0l0.078125 -0.171875q0.3593769 0 0.4843769 -0.0625q0.1875 -0.078125 0.28125 -0.21875q0.15625 -0.203125 0.3125 -0.75l1.0625 -3.65625q0.09375 -0.34375 0.09375 -0.390625q0.015625 -0.09375 0.015625 -0.171875q0 -0.15625 -0.09375 -0.25q-0.078125 -0.09375 -0.234375 -0.09375q-0.109375 0 -0.359375 0.046875l-0.0625 -0.15625l1.53125 -0.421875l0.21875 0z" fill-rule="nonzero"/><path fill="#000000" fill-opacity="0.0" d="m42.799503 90.44852l80.88188 0l0 35.905518l-80.88188 0z" fill-rule="evenodd"/><path fill="#000000" d="m67.27247 102.67414l0 -0.9375l0.8125 0l0 0.9375l-0.8125 0zm0 5.734375l0 -4.84375l0.8125 0l0 4.84375l-0.8125 0zm3.8536682 -0.734375l0.109375 0.71875q-0.34375 0.078125 -0.609375 0.078125q-0.453125 0 -0.703125 -0.140625q-0.234375 -0.140625 -0.34375 -0.359375q-0.09375 -0.234375 -0.09375 -0.984375l0 -2.78125l-0.609375 0l0 -0.640625l0.609375 0l0 -1.1875l0.8125 -0.5l0 1.6875l0.828125 0l0 0.640625l-0.828125 0l0 2.828125q0 0.359375 0.046875 0.46875q0.046875 0.09375 0.140625 0.15625q0.09375 0.046875 0.28125 0.046875q0.140625 0 0.359375 -0.03125zm4.1072845 -0.828125l0.84375 0.109375q-0.1875 0.75 -0.734375 1.15625q-0.546875 0.40625 -1.390625 0.40625q-1.0625 0 -1.6875 -0.65625q-0.609375 -0.65625 -0.609375 -1.828125q0 -1.21875 0.625 -1.890625q0.625 -0.6875 1.625 -0.6875q0.984375 0 1.59375 0.671875q0.609375 0.65625 0.609375 1.859375q0 0.0625 0 0.21875l-3.609375 0q0.046875 0.796875 0.453125 1.21875q0.40625 0.421875 1.015625 0.421875q0.453125 0 0.765625 -0.234375q0.3125 -0.234375 0.5 -0.765625zm-2.6875 -1.328125l2.703125 0q-0.0625 -0.609375 -0.3125 -0.90625q-0.390625 -0.46875 -1.015625 -0.46875q-0.5625 0 -0.953125 0.375q-0.375 0.375 -0.421875 1.0zm4.562866 2.890625l0 -4.84375l0.734375 0l0 0.734375q0.28125 -0.515625 0.515625 -0.671875q0.25 -0.171875 0.53125 -0.171875q0.421875 0 0.84375 0.265625l-0.28125 0.765625q-0.296875 -0.171875 -0.609375 -0.171875q-0.265625 0 -0.484375 0.15625q-0.203125 0.15625 -0.296875 0.453125q-0.140625 0.4375 -0.140625 0.953125l0 2.53125l-0.8125 0zm6.2625885 -0.59375q-0.453125 0.390625 -0.875 0.546875q-0.421875 0.15625 -0.90625 0.15625q-0.796875 0 -1.21875 -0.390625q-0.421875 -0.390625 -0.421875 -1.0q0 -0.34375 0.15625 -0.640625q0.15625 -0.296875 0.421875 -0.46875q0.265625 -0.1875 0.59375 -0.28125q0.234375 -0.0625 0.71875 -0.109375q1.0 -0.125 1.46875 -0.28125q0 -0.171875 0 -0.21875q0 -0.5 -0.234375 -0.703125q-0.3125 -0.28125 -0.921875 -0.28125q-0.578125 0 -0.859375 0.203125q-0.28125 0.203125 -0.40625 0.71875l-0.796875 -0.109375q0.109375 -0.515625 0.359375 -0.828125q0.25 -0.328125 0.71875 -0.5q0.46875 -0.171875 1.09375 -0.171875q0.625 0 1.0 0.15625q0.390625 0.140625 0.578125 0.359375q0.1875 0.21875 0.25 0.5625q0.046875 0.203125 0.046875 0.75l0 1.09375q0 1.140625 0.046875 1.453125q0.0625 0.296875 0.21875 0.578125l-0.859375 0q-0.125 -0.25 -0.171875 -0.59375zm-0.0625 -1.828125q-0.453125 0.171875 -1.34375 0.296875q-0.5 0.078125 -0.71875 0.171875q-0.203125 0.09375 -0.3125 0.265625q-0.109375 0.171875 -0.109375 0.390625q0 0.328125 0.234375 0.546875q0.25 0.21875 0.734375 0.21875q0.46875 0 0.828125 -0.203125q0.375 -0.21875 0.5625 -0.578125q0.125 -0.265625 0.125 -0.8125l0 -0.296875zm3.8909912 1.6875l0.109375 0.71875q-0.34375 0.078125 -0.609375 0.078125q-0.453125 0 -0.703125 -0.140625q-0.234375 -0.140625 -0.34375 -0.359375q-0.09375 -0.234375 -0.09375 -0.984375l0 -2.78125l-0.609375 0l0 -0.640625l0.609375 0l0 -1.1875l0.8125 -0.5l0 1.6875l0.828125 0l0 0.640625l-0.828125 0l0 2.828125q0 0.359375 0.046875 0.46875q0.046875 0.09375 0.140625 0.15625q0.09375 0.046875 0.28125 0.046875q0.140625 0 0.359375 -0.03125zm0.81040955 -5.0l0 -0.9375l0.8125 0l0 0.9375l-0.8125 0zm0 5.734375l0 -4.84375l0.8125 0l0 4.84375l-0.8125 0zm1.7599182 -2.421875q0 -1.34375 0.75 -1.984375q0.625 -0.546875 1.515625 -0.546875q1.0 0 1.625 0.65625q0.640625 0.65625 0.640625 1.8125q0 0.9375 -0.28125 1.46875q-0.28125 0.53125 -0.8125 0.828125q-0.53125 0.296875 -1.171875 0.296875q-1.015625 0 -1.640625 -0.640625q-0.625 -0.65625 -0.625 -1.890625zm0.84375 0q0 0.9375 0.40625 1.40625q0.40625 0.453125 1.015625 0.453125q0.609375 0 1.015625 -0.46875q0.40625 -0.46875 0.40625 -1.421875q0 -0.890625 -0.40625 -1.34375q-0.40625 -0.46875 -1.015625 -0.46875q-0.609375 0 -1.015625 0.46875q-0.40625 0.453125 -0.40625 1.375zm4.640991 2.421875l0 -4.84375l0.75 0l0 0.6875q0.53125 -0.796875 1.53125 -0.796875q0.4375 0 0.796875 0.171875q0.375 0.15625 0.546875 0.40625q0.1875 0.25 0.265625 0.609375q0.046875 0.21875 0.046875 0.796875l0 2.96875l-0.828125 0l0 -2.9375q0 -0.5 -0.09375 -0.75q-0.09375 -0.25 -0.34375 -0.390625q-0.234375 -0.15625 -0.5625 -0.15625q-0.515625 0 -0.90625 0.328125q-0.375 0.328125 -0.375 1.265625l0 2.640625l-0.828125 0z" fill-rule="nonzero"/><path fill="#000000" d="m84.03837 113.471016q0.1875 0 0.3125 0.140625q0.140625 0.125 0.140625 0.328125q0 0.1875 -0.140625 0.328125q-0.140625 0.125 -0.3125 0.125q-0.1875 0 -0.328125 -0.125q-0.140625 -0.140625 -0.140625 -0.328125q0 -0.203125 0.125 -0.328125q0.140625 -0.140625 0.34375 -0.140625zm0.046875 1.8125l-0.890625 3.203125q-0.09375 0.3125 -0.09375 0.375q0 0.078125 0.03125 0.125q0.046875 0.046875 0.109375 0.046875q0.0625 0 0.171875 -0.078125q0.25 -0.203125 0.515625 -0.578125l0.15625 0.109375q-0.3125 0.46875 -0.71875 0.796875q-0.3125 0.234375 -0.59375 0.234375q-0.1875 0 -0.3125 -0.109375q-0.109375 -0.109375 -0.109375 -0.28125q0 -0.171875 0.109375 -0.5625l0.59375 -2.046875q0.140625 -0.5 0.140625 -0.625q0 -0.09375 -0.078125 -0.15625q-0.0625 -0.0625 -0.1875 -0.0625q-0.09375 0 -0.40625 0.046875l0 -0.171875l1.5625 -0.265625z" fill-rule="nonzero"/><path fill="#000000" fill-opacity="0.0" d="m98.05133 122.73083l80.88188 0l0 35.90551l-80.88188 0z" fill-rule="evenodd"/><path fill="#000000" d="m122.52429 134.95645l0 -0.9375l0.8125 0l0 0.9375l-0.8125 0zm0 5.734375l0 -4.84375l0.8125 0l0 4.84375l-0.8125 0zm3.8536682 -0.734375l0.109375 0.71875q-0.34375 0.078125 -0.609375 0.078125q-0.453125 0 -0.703125 -0.140625q-0.234375 -0.140625 -0.34375 -0.359375q-0.09375 -0.234375 -0.09375 -0.984375l0 -2.78125l-0.609375 0l0 -0.640625l0.609375 0l0 -1.1875l0.8125 -0.5l0 1.6875l0.828125 0l0 0.640625l-0.828125 0l0 2.828125q0 0.359375 0.046875 0.46875q0.046875 0.09375 0.140625 0.15625q0.09375 0.046875 0.28125 0.046875q0.140625 0 0.359375 -0.03125zm4.1072845 -0.828125l0.84375 0.109375q-0.1875 0.75 -0.734375 1.15625q-0.546875 0.40625 -1.390625 0.40625q-1.0625 0 -1.6875 -0.65625q-0.609375 -0.65625 -0.609375 -1.828125q0 -1.21875 0.625 -1.890625q0.625 -0.6875 1.625 -0.6875q0.984375 0 1.59375 0.671875q0.609375 0.65625 0.609375 1.859375q0 0.0625 0 0.21875l-3.609375 0q0.046875 0.796875 0.453125 1.21875q0.40625 0.421875 1.015625 0.421875q0.453125 0 0.765625 -0.234375q0.3125 -0.234375 0.5 -0.765625zm-2.6875 -1.328125l2.703125 0q-0.0625 -0.609375 -0.3125 -0.90625q-0.390625 -0.46875 -1.015625 -0.46875q-0.5625 0 -0.953125 0.375q-0.375 0.375 -0.421875 1.0zm4.562866 2.890625l0 -4.84375l0.734375 0l0 0.734375q0.28125 -0.515625 0.515625 -0.671875q0.25 -0.171875 0.53125 -0.171875q0.421875 0 0.84375 0.265625l-0.28125 0.765625q-0.296875 -0.171875 -0.609375 -0.171875q-0.265625 0 -0.484375 0.15625q-0.203125 0.15625 -0.296875 0.453125q-0.140625 0.4375 -0.140625 0.953125l0 2.53125l-0.8125 0zm6.2625885 -0.59375q-0.453125 0.390625 -0.875 0.546875q-0.421875 0.15625 -0.90625 0.15625q-0.796875 0 -1.21875 -0.390625q-0.421875 -0.390625 -0.421875 -1.0q0 -0.34375 0.15625 -0.640625q0.15625 -0.296875 0.421875 -0.46875q0.265625 -0.1875 0.59375 -0.28125q0.234375 -0.0625 0.71875 -0.109375q1.0 -0.125 1.46875 -0.28125q0 -0.171875 0 -0.21875q0 -0.5 -0.234375 -0.703125q-0.3125 -0.28125 -0.921875 -0.28125q-0.578125 0 -0.859375 0.203125q-0.28125 0.203125 -0.40625 0.71875l-0.796875 -0.109375q0.109375 -0.515625 0.359375 -0.828125q0.25 -0.328125 0.71875 -0.5q0.46875 -0.171875 1.09375 -0.171875q0.625 0 1.0 0.15625q0.390625 0.140625 0.578125 0.359375q0.1875 0.21875 0.25 0.5625q0.046875 0.203125 0.046875 0.75l0 1.09375q0 1.140625 0.046875 1.453125q0.0625 0.296875 0.21875 0.578125l-0.859375 0q-0.125 -0.25 -0.171875 -0.59375zm-0.0625 -1.828125q-0.453125 0.171875 -1.34375 0.296875q-0.5 0.078125 -0.71875 0.171875q-0.203125 0.09375 -0.3125 0.265625q-0.109375 0.171875 -0.109375 0.390625q0 0.328125 0.234375 0.546875q0.25 0.21875 0.734375 0.21875q0.46875 0 0.828125 -0.203125q0.375 -0.21875 0.5625 -0.578125q0.125 -0.265625 0.125 -0.8125l0 -0.296875zm3.8909912 1.6875l0.109375 0.71875q-0.34375 0.078125 -0.609375 0.078125q-0.453125 0 -0.703125 -0.140625q-0.234375 -0.140625 -0.34375 -0.359375q-0.09375 -0.234375 -0.09375 -0.984375l0 -2.78125l-0.609375 0l0 -0.640625l0.609375 0l0 -1.1875l0.8125 -0.5l0 1.6875l0.828125 0l0 0.640625l-0.828125 0l0 2.828125q0 0.359375 0.046875 0.46875q0.046875 0.09375 0.140625 0.15625q0.09375 0.046875 0.28125 0.046875q0.140625 0 0.359375 -0.03125zm0.81040955 -5.0l0 -0.9375l0.8125 0l0 0.9375l-0.8125 0zm0 5.734375l0 -4.84375l0.8125 0l0 4.84375l-0.8125 0zm1.7599182 -2.421875q0 -1.34375 0.75 -1.984375q0.625 -0.546875 1.515625 -0.546875q1.0 0 1.625 0.65625q0.640625 0.65625 0.640625 1.8125q0 0.9375 -0.28125 1.46875q-0.28125 0.53125 -0.8125 0.828125q-0.53125 0.296875 -1.171875 0.296875q-1.015625 0 -1.640625 -0.640625q-0.625 -0.65625 -0.625 -1.890625zm0.84375 0q0 0.9375 0.40625 1.40625q0.40625 0.453125 1.015625 0.453125q0.609375 0 1.015625 -0.46875q0.40625 -0.46875 0.40625 -1.421875q0 -0.890625 -0.40625 -1.34375q-0.40625 -0.46875 -1.015625 -0.46875q-0.609375 0 -1.015625 0.46875q-0.40625 0.453125 -0.40625 1.375zm4.640991 2.421875l0 -4.84375l0.75 0l0 0.6875q0.53125 -0.796875 1.53125 -0.796875q0.4375 0 0.796875 0.171875q0.375 0.15625 0.546875 0.40625q0.1875 0.25 0.265625 0.609375q0.046875 0.21875 0.046875 0.796875l0 2.96875l-0.828125 0l0 -2.9375q0 -0.5 -0.09375 -0.75q-0.09375 -0.25 -0.34375 -0.390625q-0.234375 -0.15625 -0.5625 -0.15625q-0.515625 0 -0.90625 0.328125q-0.375 0.328125 -0.375 1.265625l0 2.640625l-0.828125 0z" fill-rule="nonzero"/><path fill="#000000" d="m133.81084 145.75333q0.1875 0 0.3125 0.140625q0.140625 0.125 0.140625 0.328125q0 0.1875 -0.140625 0.328125q-0.140625 0.125 -0.3125 0.125q-0.1875 0 -0.328125 -0.125q-0.140625 -0.140625 -0.140625 -0.328125q0 -0.203125 0.125 -0.328125q0.140625 -0.140625 0.34375 -0.140625zm0.046875 1.8125l-0.890625 3.203125q-0.09375 0.3125 -0.09375 0.375q0 0.078125 0.03125 0.125q0.046875 0.046875 0.109375 0.046875q0.0625 0 0.171875 -0.078125q0.25 -0.203125 0.515625 -0.578125l0.15625 0.109375q-0.3125 0.46875 -0.71875 0.796875q-0.3125 0.234375 -0.59375 0.234375q-0.1875 0 -0.3125 -0.109375q-0.109375 -0.109375 -0.109375 -0.28125q0 -0.171875 0.109375 -0.5625l0.59375 -2.046875q0.140625 -0.5 0.140625 -0.625q0 -0.09375 -0.078125 -0.15625q-0.0625 -0.0625 -0.1875 -0.0625q-0.09375 0 -0.40625 0.046875l0 -0.171875l1.5625 -0.265625zm3.5916595 3.484375l0 -2.28125l-2.265625 0l0 -0.359375l2.265625 0l0 -2.265625l0.375 0l0 2.265625l2.265625 0l0 0.359375l-2.265625 0l0 2.28125l-0.375 0zm7.0446625 -5.65625l-1.46875 5.09375q-0.125 0.453125 -0.125 0.65625q0 0.171875 0.109375 0.265625q0.125 0.078125 0.546875 0.109375l-0.03125 0.171875l-2.359375 0l0.078125 -0.171875q0.359375 0 0.484375 -0.0625q0.1875 -0.078125 0.28125 -0.21875q0.15625 -0.203125 0.3125 -0.75l1.0625 -3.65625q0.09375 -0.34375 0.09375 -0.390625q0.015625 -0.09375 0.015625 -0.171875q0 -0.15625 -0.09375 -0.25q-0.078125 -0.09375 -0.234375 -0.09375q-0.109375 0 -0.359375 0.046875l-0.0625 -0.15625l1.53125 -0.421875l0.21875 0z" fill-rule="nonzero"/><path fill="#ffffff" d="m3.7436552 124.02619l69.25984 0l0 38.04725l-69.25984 0z" fill-rule="evenodd"/><path stroke="#000000" stroke-width="1.0" stroke-linejoin="round" stroke-linecap="butt" d="m3.7436552 124.02619l69.25984 0l0 38.04725l-69.25984 0z" fill-rule="evenodd"/><path fill="#000000" fill-opacity="0.0" d="m6.1011963 118.139305l76.72441 0l0 29.6063l-76.72441 0z" fill-rule="evenodd"/><path fill="#000000" d="m20.684364 135.36493l0.109375 0.71875q-0.34375 0.078125 -0.609375 0.078125q-0.453125 0 -0.703125 -0.140625q-0.234375 -0.140625 -0.34375 -0.359375q-0.09375 -0.234375 -0.09375 -0.984375l0 -2.78125l-0.609375 0l0 -0.640625l0.609375 0l0 -1.1875l0.8125 -0.5l0 1.6875l0.828125 0l0 0.640625l-0.828125 0l0 2.828125q0 0.359375 0.046875 0.46875q0.046875 0.09375 0.140625 0.15625q0.09375 0.046875 0.28125 0.046875q0.140625 0 0.359375 -0.03125zm0.79478455 0.734375l0 -4.84375l0.734375 0l0 0.734375q0.28125 -0.515625 0.515625 -0.671875q0.25 -0.171875 0.53125 -0.171875q0.421875 0 0.84375 0.265625l-0.28125 0.765625q-0.296875 -0.171875 -0.609375 -0.171875q-0.265625 0 -0.484375 0.15625q-0.203125 0.15625 -0.296875 0.453125q-0.140625 0.4375 -0.140625 0.953125l0 2.53125l-0.8125 0zm6.2625885 -0.59375q-0.453125 0.390625 -0.875 0.546875q-0.421875 0.15625 -0.90625 0.15625q-0.796875 0 -1.21875 -0.390625q-0.421875 -0.390625 -0.421875 -1.0q0 -0.34375 0.15625 -0.640625q0.15625 -0.296875 0.421875 -0.46875q0.265625 -0.1875 0.59375 -0.28125q0.234375 -0.0625 0.71875 -0.109375q1.0 -0.125 1.46875 -0.28125q0 -0.171875 0 -0.21875q0 -0.5 -0.234375 -0.703125q-0.3125 -0.28125 -0.921875 -0.28125q-0.578125 0 -0.859375 0.203125q-0.28125 0.203125 -0.40625 0.71875l-0.796875 -0.109375q0.109375 -0.515625 0.359375 -0.828125q0.25 -0.328125 0.71875 -0.5q0.46875 -0.171875 1.09375 -0.171875q0.625 0 1.0 0.15625q0.390625 0.140625 0.578125 0.359375q0.1875 0.21875 0.25 0.5625q0.046875 0.203125 0.046875 0.75l0 1.09375q0 1.140625 0.046875 1.453125q0.0625 0.296875 0.21875 0.578125l-0.859375 0q-0.125 -0.25 -0.171875 -0.59375zm-0.0625 -1.828125q-0.453125 0.171875 -1.34375 0.296875q-0.5 0.078125 -0.71875 0.171875q-0.203125 0.09375 -0.3125 0.265625q-0.109375 0.171875 -0.109375 0.390625q0 0.328125 0.234375 0.546875q0.25 0.21875 0.734375 0.21875q0.46875 0 0.828125 -0.203125q0.375 -0.21875 0.5625 -0.578125q0.125 -0.265625 0.125 -0.8125l0 -0.296875zm2.0941162 2.421875l0 -4.84375l0.75 0l0 0.6875q0.53125 -0.796875 1.53125 -0.796875q0.4375 0 0.796875 0.171875q0.375 0.15625 0.546875 0.40625q0.1875 0.25 0.265625 0.609375q0.046875 0.21875 0.046875 0.796875l0 2.96875l-0.828125 0l0 -2.9375q0 -0.5 -0.09375 -0.75q-0.09375 -0.25 -0.34375 -0.390625q-0.234375 -0.15625 -0.5625 -0.15625q-0.515625 0 -0.90625 0.328125q-0.375 0.328125 -0.375 1.265625l0 2.640625l-0.828125 0zm4.859741 -1.4375l0.8125 -0.140625q0.078125 0.5 0.390625 0.765625q0.3125 0.25 0.859375 0.25q0.578125 0 0.84375 -0.234375q0.28125 -0.234375 0.28125 -0.53125q0 -0.28125 -0.25 -0.4375q-0.171875 -0.109375 -0.84375 -0.28125q-0.890625 -0.234375 -1.25 -0.390625q-0.34375 -0.171875 -0.53125 -0.46875q-0.171875 -0.296875 -0.171875 -0.640625q0 -0.328125 0.140625 -0.59375q0.15625 -0.28125 0.40625 -0.46875q0.203125 -0.140625 0.53125 -0.234375q0.328125 -0.109375 0.703125 -0.109375q0.578125 0 1.0 0.171875q0.4375 0.15625 0.640625 0.4375q0.203125 0.28125 0.28125 0.75l-0.796875 0.109375q-0.0625 -0.375 -0.328125 -0.578125q-0.265625 -0.203125 -0.734375 -0.203125q-0.5625 0 -0.8125 0.1875q-0.234375 0.171875 -0.234375 0.4375q0 0.15625 0.09375 0.28125q0.109375 0.125 0.3125 0.21875q0.125 0.046875 0.734375 0.203125q0.859375 0.234375 1.203125 0.390625q0.34375 0.140625 0.53125 0.421875q0.203125 0.28125 0.203125 0.703125q0 0.40625 -0.234375 0.78125q-0.234375 0.359375 -0.6875 0.5625q-0.453125 0.1875 -1.015625 0.1875q-0.953125 0 -1.453125 -0.390625q-0.484375 -0.390625 -0.625 -1.15625zm5.1953125 1.4375l0 -4.203125l-0.71875 0l0 -0.640625l0.71875 0l0 -0.515625q0 -0.484375 0.078125 -0.71875q0.125 -0.3125 0.421875 -0.515625q0.296875 -0.203125 0.84375 -0.203125q0.34375 0 0.765625 0.09375l-0.125 0.703125q-0.265625 -0.046875 -0.484375 -0.046875q-0.375 0 -0.53125 0.171875q-0.15625 0.15625 -0.15625 0.59375l0 0.4375l0.9375 0l0 0.640625l-0.9375 0l0 4.203125l-0.8125 0zm5.7010345 -1.5625l0.84375 0.109375q-0.1875 0.75 -0.734375 1.15625q-0.546875 0.40625 -1.390625 0.40625q-1.0625 0 -1.6875 -0.65625q-0.609375 -0.65625 -0.609375 -1.828125q0 -1.21875 0.625 -1.890625q0.625 -0.6875 1.625 -0.6875q0.984375 0 1.59375 0.671875q0.609375 0.65625 0.609375 1.859375q0 0.0625 0 0.21875l-3.609375 0q0.046875 0.796875 0.453125 1.21875q0.40625 0.421875 1.015625 0.421875q0.453125 0 0.765625 -0.234375q0.3125 -0.234375 0.5 -0.765625zm-2.6875 -1.328125l2.703125 0q-0.0625 -0.609375 -0.3125 -0.90625q-0.390625 -0.46875 -1.015625 -0.46875q-0.5625 0 -0.953125 0.375q-0.375 0.375 -0.421875 1.0zm4.562866 2.890625l0 -4.84375l0.734375 0l0 0.734375q0.28125 -0.515625 0.515625 -0.671875q0.25 -0.171875 0.53125 -0.171875q0.421875 0 0.84375 0.265625l-0.28125 0.765625q-0.296875 -0.171875 -0.609375 -0.171875q-0.265625 0 -0.484375 0.15625q-0.203125 0.15625 -0.296875 0.453125q-0.140625 0.4375 -0.140625 0.953125l0 2.53125l-0.8125 0zm8.838623 0l0 -0.609375q-0.453125 0.71875 -1.34375 0.71875q-0.578125 0 -1.0625 -0.3125q-0.484375 -0.328125 -0.765625 -0.890625q-0.265625 -0.578125 -0.265625 -1.3125q0 -0.734375 0.234375 -1.3125q0.25 -0.59375 0.734375 -0.90625q0.484375 -0.328125 1.078125 -0.328125q0.4375 0 0.78125 0.1875q0.34375 0.1875 0.5625 0.484375l0 -2.390625l0.8125 0l0 6.671875l-0.765625 0zm-2.59375 -2.40625q0 0.921875 0.390625 1.390625q0.390625 0.453125 0.9375 0.453125q0.53125 0 0.90625 -0.4375q0.375 -0.4375 0.375 -1.34375q0 -1.0 -0.390625 -1.453125q-0.375 -0.46875 -0.9375 -0.46875q-0.546875 0 -0.921875 0.453125q-0.359375 0.4375 -0.359375 1.40625zm7.797241 1.8125q-0.453125 0.390625 -0.875 0.546875q-0.421875 0.15625 -0.90625 0.15625q-0.796875 0 -1.21875 -0.390625q-0.421875 -0.390625 -0.421875 -1.0q0 -0.34375 0.15625 -0.640625q0.15625 -0.296875 0.421875 -0.46875q0.265625 -0.1875 0.59375 -0.28125q0.234375 -0.0625 0.71875 -0.109375q1.0 -0.125 1.46875 -0.28125q0 -0.171875 0 -0.21875q0 -0.5 -0.234375 -0.703125q-0.3125 -0.28125 -0.921875 -0.28125q-0.578125 0 -0.859375 0.203125q-0.28125 0.203125 -0.40625 0.71875l-0.796875 -0.109375q0.109375 -0.515625 0.359375 -0.828125q0.25 -0.328125 0.71875 -0.5q0.46875 -0.171875 1.09375 -0.171875q0.625 0 1.0 0.15625q0.390625 0.140625 0.578125 0.359375q0.1875 0.21875 0.25 0.5625q0.046875 0.203125 0.046875 0.75l0 1.09375q0 1.140625 0.046875 1.453125q0.0625 0.296875 0.21875 0.578125l-0.859375 0q-0.125 -0.25 -0.171875 -0.59375zm-0.0625 -1.828125q-0.453125 0.171875 -1.34375 0.296875q-0.5 0.078125 -0.71875 0.171875q-0.203125 0.09375 -0.3125 0.265625q-0.109375 0.171875 -0.109375 0.390625q0 0.328125 0.234375 0.546875q0.25 0.21875 0.734375 0.21875q0.46875 0 0.828125 -0.203125q0.375 -0.21875 0.5625 -0.578125q0.125 -0.265625 0.125 -0.8125l0 -0.296875zm3.8909912 1.6875l0.109375 0.71875q-0.34375 0.078125 -0.609375 0.078125q-0.453125 0 -0.703125 -0.140625q-0.234375 -0.140625 -0.34375 -0.359375q-0.09375 -0.234375 -0.09375 -0.984375l0 -2.78125l-0.609375 0l0 -0.640625l0.609375 0l0 -1.1875l0.8125 -0.5l0 1.6875l0.828125 0l0 0.640625l-0.828125 0l0 2.828125q0 0.359375 0.046875 0.46875q0.046875 0.09375 0.140625 0.15625q0.09375 0.046875 0.28125 0.046875q0.140625 0 0.359375 -0.03125zm3.9510345 0.140625q-0.453125 0.390625 -0.875 0.546875q-0.421875 0.15625 -0.90625 0.15625q-0.796875 0 -1.21875 -0.390625q-0.421875 -0.390625 -0.421875 -1.0q0 -0.34375 0.15625 -0.640625q0.15625 -0.296875 0.421875 -0.46875q0.265625 -0.1875 0.59375 -0.28125q0.234375 -0.0625 0.71875 -0.109375q1.0 -0.125 1.46875 -0.28125q0 -0.171875 0 -0.21875q0 -0.5 -0.234375 -0.703125q-0.3125 -0.28125 -0.921875 -0.28125q-0.578125 0 -0.859375 0.203125q-0.28125 0.203125 -0.40625 0.71875l-0.796875 -0.109375q0.109375 -0.515625 0.359375 -0.828125q0.25 -0.328125 0.71875 -0.5q0.46875 -0.171875 1.09375 -0.171875q0.625 0 1.0 0.15625q0.390625 0.140625 0.578125 0.359375q0.1875 0.21875 0.25 0.5625q0.046875 0.203125 0.046875 0.75l0 1.09375q0 1.140625 0.046875 1.453125q0.0625 0.296875 0.21875 0.578125l-0.859375 0q-0.125 -0.25 -0.171875 -0.59375zm-0.0625 -1.828125q-0.453125 0.171875 -1.34375 0.296875q-0.5 0.078125 -0.71875 0.171875q-0.203125 0.09375 -0.3125 0.265625q-0.109375 0.171875 -0.109375 0.390625q0 0.328125 0.234375 0.546875q0.25 0.21875 0.734375 0.21875q0.46875 0 0.828125 -0.203125q0.375 -0.21875 0.5625 -0.578125q0.125 -0.265625 0.125 -0.8125l0 -0.296875z" fill-rule="nonzero"/><path fill="#000000" fill-opacity="0.0" d="m-2.2973173 135.04982l83.1811 0l0 24.755905l-83.1811 0z" fill-rule="evenodd"/><path fill="#000000" d="m19.162533 153.00981l0 -4.84375l0.734375 0l0 0.734375q0.28125 -0.515625 0.515625 -0.671875q0.25 -0.171875 0.53125 -0.171875q0.421875 0 0.84375 0.265625l-0.28125 0.765625q-0.296875 -0.171875 -0.609375 -0.171875q-0.265625 0 -0.484375 0.15625q-0.203125 0.15625 -0.296875 0.453125q-0.140625 0.4375 -0.140625 0.953125l0 2.53125l-0.8125 0zm6.2782135 0l0 -0.703125q-0.5625 0.8125 -1.53125 0.8125q-0.421875 0 -0.796875 -0.15625q-0.375 -0.171875 -0.5625 -0.421875q-0.171875 -0.25 -0.25 -0.609375q-0.046875 -0.234375 -0.046875 -0.765625l0 -3.0l0.828125 0l0 2.6875q0 0.640625 0.046875 0.875q0.078125 0.3125 0.328125 0.5q0.25 0.1875 0.609375 0.1875q0.375 0 0.703125 -0.1875q0.328125 -0.1875 0.453125 -0.515625q0.140625 -0.328125 0.140625 -0.953125l0 -2.59375l0.8125 0l0 4.84375l-0.734375 0zm2.0159912 0l0 -4.84375l0.75 0l0 0.6875q0.53125 -0.796875 1.53125 -0.796875q0.4375 0 0.796875 0.171875q0.375 0.15625 0.546875 0.40625q0.1875 0.25 0.265625 0.609375q0.046875 0.21875 0.046875 0.796875l0 2.96875l-0.828125 0l0 -2.9375q0 -0.5 -0.09375 -0.75q-0.09375 -0.25 -0.34375 -0.390625q-0.234375 -0.15625 -0.5625 -0.15625q-0.515625 0 -0.90625 0.328125q-0.375 0.328125 -0.375 1.265625l0 2.640625l-0.828125 0zm7.7951508 0l0 -6.671875l0.8125 0l0 3.796875l1.9375 -1.96875l1.0625 0l-1.84375 1.796875l2.03125 3.046875l-1.015625 0l-1.59375 -2.46875l-0.578125 0.546875l0 1.921875l-0.8125 0zm7.9609375 -1.5625l0.84375 0.109375q-0.1875 0.75 -0.734375 1.15625q-0.546875 0.40625 -1.390625 0.40625q-1.0625 0 -1.6875 -0.65625q-0.609375 -0.65625 -0.609375 -1.828125q0 -1.21875 0.625 -1.890625q0.625 -0.6875 1.625 -0.6875q0.984375 0 1.59375 0.671875q0.609375 0.65625 0.609375 1.859375q0 0.0625 0 0.21875l-3.609375 0q0.046875 0.796875 0.453125 1.21875q0.40625 0.421875 1.015625 0.421875q0.453125 0 0.765625 -0.234375q0.3125 -0.234375 0.5 -0.765625zm-2.6875 -1.328125l2.703125 0q-0.0625 -0.609375 -0.3125 -0.90625q-0.390625 -0.46875 -1.015625 -0.46875q-0.5625 0 -0.953125 0.375q-0.375 0.375 -0.421875 1.0zm4.562866 2.890625l0 -4.84375l0.734375 0l0 0.734375q0.28125 -0.515625 0.515625 -0.671875q0.25 -0.171875 0.53125 -0.171875q0.421875 0 0.84375 0.265625l-0.28125 0.765625q-0.296875 -0.171875 -0.609375 -0.171875q-0.265625 0 -0.484375 0.15625q-0.203125 0.15625 -0.296875 0.453125q-0.140625 0.4375 -0.140625 0.953125l0 2.53125l-0.8125 0zm3.1063385 0l0 -4.84375l0.75 0l0 0.6875q0.53125 -0.796875 1.53125 -0.796875q0.4375 0 0.796875 0.171875q0.375 0.15625 0.546875 0.40625q0.1875 0.25 0.265625 0.609375q0.046875 0.21875 0.046875 0.796875l0 2.96875l-0.828125 0l0 -2.9375q0 -0.5 -0.09375 -0.75q-0.09375 -0.25 -0.34375 -0.390625q-0.234375 -0.15625 -0.5625 -0.15625q-0.515625 0 -0.90625 0.328125q-0.375 0.328125 -0.375 1.265625l0 2.640625l-0.828125 0zm8.500366 -1.5625l0.84375 0.109375q-0.1875 0.75 -0.734375 1.15625q-0.546875 0.40625 -1.390625 0.40625q-1.0625 0 -1.6875 -0.65625q-0.609375 -0.65625 -0.609375 -1.828125q0 -1.21875 0.625 -1.890625q0.625 -0.6875 1.625 -0.6875q0.984375 0 1.59375 0.671875q0.609375 0.65625 0.609375 1.859375q0 0.0625 0 0.21875l-3.609375 0q0.046875 0.796875 0.453125 1.21875q0.40625 0.421875 1.015625 0.421875q0.453125 0 0.765625 -0.234375q0.3125 -0.234375 0.5 -0.765625zm-2.6875 -1.328125l2.703125 0q-0.0625 -0.609375 -0.3125 -0.90625q-0.390625 -0.46875 -1.015625 -0.46875q-0.5625 0 -0.953125 0.375q-0.375 0.375 -0.421875 1.0zm4.547241 2.890625l0 -6.671875l0.828125 0l0 6.671875l-0.828125 0z" fill-rule="nonzero"/><path fill="#6aa84f" d="m7.4401884 127.670555l6.740157 0l0 12.818901l-6.740157 0z" fill-rule="evenodd"/><path stroke="#000000" stroke-width="1.0" stroke-linejoin="round" stroke-linecap="butt" d="m7.4401884 127.670555l6.740157 0l0 12.818901l-6.740157 0z" fill-rule="evenodd"/><path fill="#cc0000" d="m7.4401884 144.26111l6.740157 0l0 12.818893l-6.740157 0z" fill-rule="evenodd"/><path stroke="#000000" stroke-width="1.0" stroke-linejoin="round" stroke-linecap="butt" d="m7.4401884 144.26111l6.740157 0l0 12.818893l-6.740157 0z" fill-rule="evenodd"/></g></svg>