<svg version="1.1" viewBox="0.0 0.0 420.37532808398953 151.70866141732284" fill="none" stroke="none" stroke-linecap="square" stroke-miterlimit="10" xmlns:xlink="http://www.w3.org/1999/xlink" xmlns="http://www.w3.org/2000/svg"><clipPath id="p.0"><path d="m0 0l420.37534 0l0 151.70866l-420.37534 0l0 -151.70866z" clip-rule="nonzero"/></clipPath><g clip-path="url(#p.0)"><path fill="#000000" fill-opacity="0.0" d="m0 0l420.37534 0l0 151.70866l-420.37534 0z" fill-rule="evenodd"/><path fill="#ffffff" d="m115.79332 30.406197l0 0c0 -12.7767315 10.35759 -23.13432 23.134323 -23.13432l200.44003 0c6.1355896 0 12.019897 2.4373589 16.358429 6.7758856c4.3385315 4.3385277 6.775879 10.222832 6.775879 16.358435l0 92.53451c0 12.776733 -10.357574 23.134323 -23.134308 23.134323l-200.44003 0c-12.776733 0 -23.134323 -10.35759 -23.134323 -23.134323z" fill-rule="evenodd"/><path stroke="#000000" stroke-width="1.0" stroke-linejoin="round" stroke-linecap="butt" d="m115.79332 30.406197l0 0c0 -12.7767315 10.35759 -23.13432 23.134323 -23.13432l200.44003 0c6.1355896 0 12.019897 2.4373589 16.358429 6.7758856c4.3385315 4.3385277 6.775879 10.222832 6.775879 16.358435l0 92.53451c0 12.776733 -10.357574 23.134323 -23.134308 23.134323l-200.44003 0c-12.776733 0 -23.134323 -10.35759 -23.134323 -23.134323z" fill-rule="evenodd"/><path fill="#cfe2f3" d="m110.012344 22.577217l13.51181 0l0 26.960629l-13.51181 0z" fill-rule="evenodd"/><path stroke="#000000" stroke-width="1.0" stroke-linejoin="round" stroke-linecap="butt" d="m110.012344 22.577217l13.51181 0l0 26.960629l-13.51181 0z" fill-rule="evenodd"/><path fill="#cfe2f3" d="m110.012344 63.170425l13.51181 0l0 26.960632l-13.51181 0z" fill-rule="evenodd"/><path stroke="#000000" stroke-width="1.0" stroke-linejoin="round" stroke-linecap="butt" d="m110.012344 63.170425l13.51181 0l0 26.960632l-13.51181 0z" fill-rule="evenodd"/><path fill="#cfe2f3" d="m110.012344 103.76364l13.51181 0l0 26.960632l-13.51181 0z" fill-rule="evenodd"/><path stroke="#000000" stroke-width="1.0" stroke-linejoin="round" stroke-linecap="butt" d="m110.012344 103.76364l13.51181 0l0 26.960632l-13.51181 0z" fill-rule="evenodd"/><path fill="#000000" fill-opacity="0.0" d="m77.49659 31.637741l32.503937 0" fill-rule="evenodd"/><path stroke="#000000" stroke-width="1.0" stroke-linejoin="round" stroke-linecap="butt" d="m77.49659 31.637741l32.503937 0" fill-rule="evenodd"/><path fill="#000000" fill-opacity="0.0" d="m77.49056 117.254524l32.503937 0" fill-rule="evenodd"/><path stroke="#000000" stroke-width="1.0" stroke-linejoin="round" stroke-linecap="butt" d="m77.49056 117.254524l32.503937 0" fill-rule="evenodd"/><path fill="#000000" fill-opacity="0.0" d="m18.101381 10.20314l67.46457 0l0 42.299213l-67.46457 0z" fill-rule="evenodd"/><path fill="#000000" d="m73.23027 39.68314l-0.046875 -1.40625q-0.859375 0.84375 -1.734375 1.21875q-0.875 0.375 -1.84375 0.375q-0.90625 0 -1.546875 -0.21875q-0.625 -0.234375 -1.046875 -0.640625q-0.40625 -0.40625 -0.59375 -0.9375q-0.1875 -0.546875 -0.1875 -1.1875q0 -1.5625 1.171875 -2.453125q1.171875 -0.890625 3.453125 -0.890625l2.171875 0l0 -0.921875q0 -0.921875 -0.59375 -1.484375q-0.59375 -0.5625 -1.8125 -0.5625q-0.890625 0 -1.75 0.203125q-0.859375 0.203125 -1.765625 0.5625l0 -1.640625q0.34375 -0.125 0.765625 -0.234375q0.421875 -0.125 0.890625 -0.21875q0.46875 -0.09375 0.96875 -0.140625q0.515625 -0.0625 1.03125 -0.0625q0.953125 0 1.703125 0.203125q0.765625 0.203125 1.296875 0.640625q0.53125 0.421875 0.8125 1.078125q0.28125 0.640625 0.28125 1.515625l0 7.203125l-1.625 0zm-0.203125 -4.765625l-2.296875 0q-0.6875 0 -1.171875 0.140625q-0.484375 0.140625 -0.796875 0.390625q-0.3125 0.25 -0.46875 0.59375q-0.15625 0.34375 -0.15625 0.78125q0 0.3125 0.09375 0.59375q0.09375 0.265625 0.296875 0.484375q0.21875 0.203125 0.546875 0.328125q0.34375 0.125 0.8125 0.125q0.625 0 1.4375 -0.375q0.8125 -0.375 1.703125 -1.203125l0 -1.859375z" fill-rule="nonzero"/><path fill="#000000" fill-opacity="0.0" d="m3.0772142 52.479706l81.66929 0l0 42.29921l-81.66929 0z" fill-rule="evenodd"/><path fill="#000000" d="m74.629585 76.537834q0 1.3125 -0.359375 2.34375q-0.359375 1.015625 -1.03125 1.734375q-0.65625 0.703125 -1.609375 1.09375q-0.9375 0.375 -2.125 0.375q-0.9375 0 -1.90625 -0.171875q-0.9687576 -0.1875 -1.9062576 -0.5625l0 -14.109375l1.8125076 0l0 4.046875l-0.09375 1.9375q0.78125 -1.046875 1.671875 -1.46875q0.890625 -0.4375 1.921875 -0.4375q0.890625 0 1.5625 0.375q0.6875 0.375 1.140625 1.0625q0.453125 0.671875 0.6875 1.640625q0.234375 0.953125 0.234375 2.140625zm-1.859375 0.09375q0 -0.828125 -0.125 -1.515625q-0.109375 -0.6875 -0.375 -1.171875q-0.265625 -0.5 -0.671875 -0.765625q-0.40625 -0.28125 -0.96875 -0.28125q-0.34375 0 -0.703125 0.109375q-0.34375 0.109375 -0.734375 0.375q-0.375 0.25 -0.796875 0.671875q-0.421875 0.421875 -0.890625 1.046875l0 5.0625q0.53125 0.21875 1.078125 0.34375q0.546875 0.109375 1.046875 0.109375q0.625 0 1.1875 -0.1875q0.578125 -0.203125 1.0 -0.671875q0.4375 -0.46875 0.6875 -1.234375q0.265625 -0.765625 0.265625 -1.890625z" fill-rule="nonzero"/><path fill="#000000" fill-opacity="0.0" d="m-21.170603 91.507675l105.82677 0l0 42.29921l-105.82677 0z" fill-rule="evenodd"/><path fill="#000000" d="m26.821531 120.59705q-0.71875 0.28125 -1.46875 0.40625q-0.734375 0.125 -1.53125 0.125q-2.46875 0 -3.8125 -1.34375q-1.34375 -1.34375 -1.34375 -3.921875q0 -1.234375 0.390625 -2.25q0.390625 -1.015625 1.078125 -1.734375q0.703125 -0.71875 1.671875 -1.109375q0.96875 -0.390625 2.140625 -0.390625q0.8125 0 1.515625 0.125q0.703125 0.109375 1.359375 0.375l0 1.71875q-0.6875 -0.34375 -1.390625 -0.5q-0.703125 -0.171875 -1.453125 -0.171875q-0.6875 0 -1.3125 0.265625q-0.625 0.265625 -1.09375 0.765625q-0.46875 0.5 -0.734375 1.21875q-0.265625 0.71875 -0.265625 1.625q0 1.890625 0.921875 2.84375q0.921875 0.9375 2.546875 0.9375q0.75 0 1.4375 -0.15625q0.6875 -0.171875 1.34375 -0.515625l0 1.6875zm12.695051 -4.921875q0 1.21875 -0.34375 2.234375q-0.34375 1.015625 -0.984375 1.75q-0.640625 0.71875 -1.578125 1.125q-0.921875 0.390625 -2.09375 0.390625q-1.125 0 -2.015625 -0.34375q-0.8906231 -0.359375 -1.5156231 -1.03125q-0.625 -0.671875 -0.953125 -1.671875q-0.328125 -1.0 -0.328125 -2.3125q0 -1.21875 0.34375 -2.21875q0.34375 -1.0 0.984375 -1.71875q0.65625 -0.734375 1.5781231 -1.125q0.9375 -0.40625 2.109375 -0.40625q1.125 0 2.015625 0.34375q0.890625 0.34375 1.5 1.015625q0.625 0.671875 0.953125 1.671875q0.328125 1.0 0.328125 2.296875zm-1.84375 0.078125q0 -0.96875 -0.21875 -1.6875q-0.21875 -0.71875 -0.609375 -1.203125q-0.390625 -0.484375 -0.96875 -0.734375q-0.5625 -0.25 -1.265625 -0.25q-0.8125 0 -1.390625 0.328125q-0.578125 0.3125 -0.953125 0.84375q-0.3593731 0.53125 -0.5312481 1.234375q-0.171875 0.703125 -0.171875 1.46875q0 0.96875 0.203125 1.703125q0.21875 0.734375 0.6093731 1.21875q0.40625 0.484375 0.96875 0.734375q0.5625 0.234375 1.265625 0.234375q0.8125 0 1.390625 -0.3125q0.578125 -0.328125 0.953125 -0.859375q0.375 -0.53125 0.546875 -1.234375q0.171875 -0.703125 0.171875 -1.484375zm12.882553 5.234375l-1.625 0l-0.0625 -1.6875q-0.46875 0.546875 -0.890625 0.90625q-0.421875 0.359375 -0.84375 0.578125q-0.421875 0.21875 -0.84375 0.296875q-0.421875 0.09375 -0.890625 0.09375q-1.609375 0 -2.4375 -0.9375q-0.8125 -0.953125 -0.8125 -2.875l0 -6.828125l1.8125 0l0 6.6875q0 2.40625 1.8125 2.40625q0.328125 0 0.640625 -0.09375q0.328125 -0.109375 0.671875 -0.34375q0.34375 -0.25 0.75 -0.671875q0.40625 -0.421875 0.90625 -1.046875l0 -6.9375l1.8125 0l0 10.453125zm3.320053 -10.453125l1.609375 0l0.078125 1.6875q0.453125 -0.546875 0.875 -0.90625q0.4375 -0.359375 0.84375 -0.578125q0.40625 -0.21875 0.828125 -0.296875q0.4375 -0.09375 0.890625 -0.09375q1.625 0 2.453125 0.953125q0.828125 0.953125 0.828125 2.859375l0 6.828125l-1.8125 0l0 -6.671875q0 -1.234375 -0.46875 -1.8125q-0.453125 -0.59375 -1.359375 -0.59375q-0.328125 0 -0.65625 0.09375q-0.3125 0.09375 -0.65625 0.34375q-0.34375 0.25 -0.75 0.671875q-0.390625 0.40625 -0.890625 1.03125l0 6.9375l-1.8125 0l0 -10.453125zm20.148182 10.3125q-0.609375 0.15625 -1.265625 0.21875q-0.65625 0.0625 -1.34375 0.0625q-1.96875 0 -2.9375 -0.890625q-0.96875 -0.890625 -0.96875 -2.734375l0 -5.453125l-2.921875 0l0 -1.515625l2.921875 0l0 -2.875l1.8125 -0.46875l0 3.34375l4.703125 0l0 1.515625l-4.703125 0l0 5.3125q0 1.125 0.59375 1.6875q0.609375 0.546875 1.78125 0.546875q0.5 0 1.09375 -0.078125q0.59375 -0.078125 1.234375 -0.234375l0 1.5625z" fill-rule="nonzero"/><path fill="#cfe2f3" d="m356.771 62.929302l13.51181 0l0 26.960629l-13.51181 0z" fill-rule="evenodd"/><path stroke="#000000" stroke-width="1.0" stroke-linejoin="round" stroke-linecap="butt" d="m356.771 62.929302l13.51181 0l0 26.960629l-13.51181 0z" fill-rule="evenodd"/><path fill="#000000" fill-opacity="0.0" d="m395.62427 50.6626l87.55908 0l0 42.299213l-87.55908 0z" fill-rule="evenodd"/><path fill="#000000" d="m414.42114 79.751976q-0.71875 0.28125 -1.46875 0.40625q-0.734375 0.125 -1.53125 0.125q-2.46875 0 -3.8125 -1.34375q-1.34375 -1.34375 -1.34375 -3.921875q0 -1.234375 0.390625 -2.25q0.390625 -1.015625 1.078125 -1.734375q0.703125 -0.71875 1.671875 -1.109375q0.96875 -0.390625 2.140625 -0.390625q0.8125 0 1.515625 0.125q0.703125 0.109375 1.359375 0.375l0 1.71875q-0.6875 -0.34375 -1.390625 -0.5q-0.703125 -0.171875 -1.453125 -0.171875q-0.6875 0 -1.3125 0.265625q-0.625 0.265625 -1.09375 0.765625q-0.46875 0.5 -0.734375 1.21875q-0.265625 0.71875 -0.265625 1.625q0 1.890625 0.921875 2.84375q0.921875 0.9375 2.546875 0.9375q0.75 0 1.4375 -0.15625q0.6875 -0.171875 1.34375 -0.515625l0 1.6875z" fill-rule="nonzero"/><path fill="#000000" fill-opacity="0.0" d="m123.524155 36.057533l50.362198 0l0 19.685036l50.362213 0" fill-rule="evenodd"/><path stroke="#000000" stroke-width="1.0" stroke-linejoin="round" stroke-linecap="butt" stroke-dasharray="4.0,3.0" d="m123.524155 36.057533l50.362198 0l0 19.685036l50.362213 0" fill-rule="evenodd"/><path fill="#000000" fill-opacity="0.0" d="m123.5033 76.66131l50.614174 0l0 -9.858269l50.61418 0" fill-rule="evenodd"/><path stroke="#000000" stroke-width="1.0" stroke-linejoin="round" stroke-linecap="butt" stroke-dasharray="4.0,3.0" d="m123.5033 76.66131l50.614174 0l0 -9.858269l50.61418 0" fill-rule="evenodd"/><path fill="#cfe2f3" d="m218.68906 60.554214l0 0c0 -10.906536 9.602966 -19.748032 21.448822 -19.748032l0 0c11.845856 0 21.448822 8.8414955 21.448822 19.748032l0 0c0 10.90654 -9.602966 19.748032 -21.448822 19.748032l0 0c-11.845856 0 -21.448822 -8.841492 -21.448822 -19.748032z" fill-rule="evenodd"/><path stroke="#000000" stroke-width="1.0" stroke-linejoin="round" stroke-linecap="butt" d="m218.68906 60.554214l0 0c0 -10.906536 9.602966 -19.748032 21.448822 -19.748032l0 0c11.845856 0 21.448822 8.8414955 21.448822 19.748032l0 0c0 10.90654 -9.602966 19.748032 -21.448822 19.748032l0 0c-11.845856 0 -21.448822 -8.841492 -21.448822 -19.748032z" fill-rule="evenodd"/><path fill="#000000" fill-opacity="0.0" d="m220.34 25.798641l46.299225 0l0 53.322834l-46.299225 0z" fill-rule="evenodd"/><path fill="#000000" d="m247.6525 61.10864l-6.90625 0l0 7.171879l-3.015625 0l0 -7.171879l-6.90625 0l0 -2.671875l6.90625 0l0 -7.109375l3.015625 0l0 7.109375l6.90625 0l0 2.671875z" fill-rule="nonzero"/><path fill="#000000" fill-opacity="0.0" d="m123.524155 117.24395l116.59842 0l0 -36.944878" fill-rule="evenodd"/><path stroke="#000000" stroke-width="1.0" stroke-linejoin="round" stroke-linecap="butt" stroke-dasharray="1.0,3.0" d="m123.524155 117.24395l116.59842 0l0 -36.944878" fill-rule="evenodd"/><path fill="#000000" fill-opacity="0.0" d="m261.30643 61.480484l47.7323 0l0 14.929131l47.73227 0" fill-rule="evenodd"/><path stroke="#000000" stroke-width="1.0" stroke-linejoin="round" stroke-linecap="butt" stroke-dasharray="4.0,3.0" d="m261.30643 61.480484l47.7323 0l0 14.929131l47.73227 0" fill-rule="evenodd"/><path fill="#000000" fill-opacity="0.0" d="m77.49056 24.72359l32.503937 0" fill-rule="evenodd"/><path stroke="#000000" stroke-width="1.0" stroke-linejoin="round" stroke-linecap="butt" d="m77.49056 24.72359l32.503937 0" fill-rule="evenodd"/><path fill="#000000" fill-opacity="0.0" d="m77.49659 23.072062l32.503937 0" fill-rule="evenodd"/><path stroke="#000000" stroke-width="1.0" stroke-linejoin="round" stroke-linecap="butt" d="m77.49659 23.072062l32.503937 0" fill-rule="evenodd"/><path fill="#000000" fill-opacity="0.0" d="m77.49056 29.882982l32.503937 0" fill-rule="evenodd"/><path stroke="#000000" stroke-width="1.0" stroke-linejoin="round" stroke-linecap="butt" d="m77.49056 29.882982l32.503937 0" fill-rule="evenodd"/><path fill="#000000" fill-opacity="0.0" d="m77.49659 33.298283l32.503937 0" fill-rule="evenodd"/><path stroke="#000000" stroke-width="1.0" stroke-linejoin="round" stroke-linecap="butt" d="m77.49659 33.298283l32.503937 0" fill-rule="evenodd"/><path fill="#000000" fill-opacity="0.0" d="m77.49659 26.467468l32.503937 0" fill-rule="evenodd"/><path stroke="#000000" stroke-width="1.0" stroke-linejoin="round" stroke-linecap="butt" d="m77.49659 26.467468l32.503937 0" fill-rule="evenodd"/><path fill="#000000" fill-opacity="0.0" d="m77.49659 28.212812l32.503937 0" fill-rule="evenodd"/><path stroke="#000000" stroke-width="1.0" stroke-linejoin="round" stroke-linecap="butt" d="m77.49659 28.212812l32.503937 0" fill-rule="evenodd"/><path fill="#000000" fill-opacity="0.0" d="m77.493576 45.420727l32.503937 0" fill-rule="evenodd"/><path stroke="#000000" stroke-width="1.0" stroke-linejoin="round" stroke-linecap="butt" d="m77.493576 45.420727l32.503937 0" fill-rule="evenodd"/><path fill="#000000" fill-opacity="0.0" d="m77.49659 34.99504l32.503937 0" fill-rule="evenodd"/><path stroke="#000000" stroke-width="1.0" stroke-linejoin="round" stroke-linecap="butt" d="m77.49659 34.99504l32.503937 0" fill-rule="evenodd"/><path fill="#000000" fill-opacity="0.0" d="m77.48754 38.390965l32.503944 0" fill-rule="evenodd"/><path stroke="#000000" stroke-width="1.0" stroke-linejoin="round" stroke-linecap="butt" d="m77.48754 38.390965l32.503944 0" fill-rule="evenodd"/><path fill="#000000" fill-opacity="0.0" d="m77.493576 36.635517l32.503937 0" fill-rule="evenodd"/><path stroke="#000000" stroke-width="1.0" stroke-linejoin="round" stroke-linecap="butt" d="m77.493576 36.635517l32.503937 0" fill-rule="evenodd"/><path fill="#000000" fill-opacity="0.0" d="m77.48754 43.66597l32.503944 0" fill-rule="evenodd"/><path stroke="#000000" stroke-width="1.0" stroke-linejoin="round" stroke-linecap="butt" d="m77.48754 43.66597l32.503944 0" fill-rule="evenodd"/><path fill="#000000" fill-opacity="0.0" d="m77.493576 47.19688l32.503937 0" fill-rule="evenodd"/><path stroke="#000000" stroke-width="1.0" stroke-linejoin="round" stroke-linecap="butt" d="m77.493576 47.19688l32.503937 0" fill-rule="evenodd"/><path fill="#000000" fill-opacity="0.0" d="m77.493576 40.134842l32.503937 0" fill-rule="evenodd"/><path stroke="#000000" stroke-width="1.0" stroke-linejoin="round" stroke-linecap="butt" d="m77.493576 40.134842l32.503937 0" fill-rule="evenodd"/><path fill="#000000" fill-opacity="0.0" d="m77.493576 41.880188l32.503937 0" fill-rule="evenodd"/><path stroke="#000000" stroke-width="1.0" stroke-linejoin="round" stroke-linecap="butt" d="m77.493576 41.880188l32.503937 0" fill-rule="evenodd"/><path fill="#000000" fill-opacity="0.0" d="m77.493576 49.05115l32.503937 0" fill-rule="evenodd"/><path stroke="#000000" stroke-width="1.0" stroke-linejoin="round" stroke-linecap="butt" d="m77.493576 49.05115l32.503937 0" fill-rule="evenodd"/><path fill="#000000" fill-opacity="0.0" d="m77.50563 72.23849l32.503937 0" fill-rule="evenodd"/><path stroke="#000000" stroke-width="1.0" stroke-linejoin="round" stroke-linecap="butt" d="m77.50563 72.23849l32.503937 0" fill-rule="evenodd"/><path fill="#000000" fill-opacity="0.0" d="m77.4996 65.32434l32.503937 0" fill-rule="evenodd"/><path stroke="#000000" stroke-width="1.0" stroke-linejoin="round" stroke-linecap="butt" d="m77.4996 65.32434l32.503937 0" fill-rule="evenodd"/><path fill="#000000" fill-opacity="0.0" d="m77.50563 63.672806l32.503937 0" fill-rule="evenodd"/><path stroke="#000000" stroke-width="1.0" stroke-linejoin="round" stroke-linecap="butt" d="m77.50563 63.672806l32.503937 0" fill-rule="evenodd"/><path fill="#000000" fill-opacity="0.0" d="m77.4996 70.48373l32.503937 0" fill-rule="evenodd"/><path stroke="#000000" stroke-width="1.0" stroke-linejoin="round" stroke-linecap="butt" d="m77.4996 70.48373l32.503937 0" fill-rule="evenodd"/><path fill="#000000" fill-opacity="0.0" d="m77.50563 74.01464l32.503937 0" fill-rule="evenodd"/><path stroke="#000000" stroke-width="1.0" stroke-linejoin="round" stroke-linecap="butt" d="m77.50563 74.01464l32.503937 0" fill-rule="evenodd"/><path fill="#000000" fill-opacity="0.0" d="m77.50563 67.068214l32.503937 0" fill-rule="evenodd"/><path stroke="#000000" stroke-width="1.0" stroke-linejoin="round" stroke-linecap="butt" d="m77.50563 67.068214l32.503937 0" fill-rule="evenodd"/><path fill="#000000" fill-opacity="0.0" d="m77.50563 68.81356l32.503937 0" fill-rule="evenodd"/><path stroke="#000000" stroke-width="1.0" stroke-linejoin="round" stroke-linecap="butt" d="m77.50563 68.81356l32.503937 0" fill-rule="evenodd"/><path fill="#000000" fill-opacity="0.0" d="m77.50563 75.7114l32.503937 0" fill-rule="evenodd"/><path stroke="#000000" stroke-width="1.0" stroke-linejoin="round" stroke-linecap="butt" d="m77.50563 75.7114l32.503937 0" fill-rule="evenodd"/><path fill="#000000" fill-opacity="0.0" d="m77.50262 86.02148l32.503937 0" fill-rule="evenodd"/><path stroke="#000000" stroke-width="1.0" stroke-linejoin="round" stroke-linecap="butt" d="m77.50262 86.02148l32.503937 0" fill-rule="evenodd"/><path fill="#000000" fill-opacity="0.0" d="m77.49659 78.991714l32.503937 0" fill-rule="evenodd"/><path stroke="#000000" stroke-width="1.0" stroke-linejoin="round" stroke-linecap="butt" d="m77.49659 78.991714l32.503937 0" fill-rule="evenodd"/><path fill="#000000" fill-opacity="0.0" d="m77.50262 77.29407l32.503937 0" fill-rule="evenodd"/><path stroke="#000000" stroke-width="1.0" stroke-linejoin="round" stroke-linecap="butt" d="m77.50262 77.29407l32.503937 0" fill-rule="evenodd"/><path fill="#000000" fill-opacity="0.0" d="m77.49659 84.266716l32.503937 0" fill-rule="evenodd"/><path stroke="#000000" stroke-width="1.0" stroke-linejoin="round" stroke-linecap="butt" d="m77.49659 84.266716l32.503937 0" fill-rule="evenodd"/><path fill="#000000" fill-opacity="0.0" d="m77.50262 87.79763l32.503937 0" fill-rule="evenodd"/><path stroke="#000000" stroke-width="1.0" stroke-linejoin="round" stroke-linecap="butt" d="m77.50262 87.79763l32.503937 0" fill-rule="evenodd"/><path fill="#000000" fill-opacity="0.0" d="m77.50262 80.73559l32.503937 0" fill-rule="evenodd"/><path stroke="#000000" stroke-width="1.0" stroke-linejoin="round" stroke-linecap="butt" d="m77.50262 80.73559l32.503937 0" fill-rule="evenodd"/><path fill="#000000" fill-opacity="0.0" d="m77.50262 82.480934l32.503937 0" fill-rule="evenodd"/><path stroke="#000000" stroke-width="1.0" stroke-linejoin="round" stroke-linecap="butt" d="m77.50262 82.480934l32.503937 0" fill-rule="evenodd"/><path fill="#000000" fill-opacity="0.0" d="m77.50262 89.65189l32.503937 0" fill-rule="evenodd"/><path stroke="#000000" stroke-width="1.0" stroke-linejoin="round" stroke-linecap="butt" d="m77.50262 89.65189l32.503937 0" fill-rule="evenodd"/><path fill="#000000" fill-opacity="0.0" d="m370.26498 71.99736l32.503937 0" fill-rule="evenodd"/><path stroke="#000000" stroke-width="1.0" stroke-linejoin="round" stroke-linecap="butt" d="m370.26498 71.99736l32.503937 0" fill-rule="evenodd"/><path fill="#000000" fill-opacity="0.0" d="m370.25894 65.08321l32.503937 0" fill-rule="evenodd"/><path stroke="#000000" stroke-width="1.0" stroke-linejoin="round" stroke-linecap="butt" d="m370.25894 65.08321l32.503937 0" fill-rule="evenodd"/><path fill="#000000" fill-opacity="0.0" d="m370.26498 63.431683l32.503937 0" fill-rule="evenodd"/><path stroke="#000000" stroke-width="1.0" stroke-linejoin="round" stroke-linecap="butt" d="m370.26498 63.431683l32.503937 0" fill-rule="evenodd"/><path fill="#000000" fill-opacity="0.0" d="m370.25894 70.24261l32.503937 0" fill-rule="evenodd"/><path stroke="#000000" stroke-width="1.0" stroke-linejoin="round" stroke-linecap="butt" d="m370.25894 70.24261l32.503937 0" fill-rule="evenodd"/><path fill="#000000" fill-opacity="0.0" d="m370.26498 73.701744l32.503937 0" fill-rule="evenodd"/><path stroke="#000000" stroke-width="1.0" stroke-linejoin="round" stroke-linecap="butt" d="m370.26498 73.701744l32.503937 0" fill-rule="evenodd"/><path fill="#000000" fill-opacity="0.0" d="m370.26498 66.82709l32.503937 0" fill-rule="evenodd"/><path stroke="#000000" stroke-width="1.0" stroke-linejoin="round" stroke-linecap="butt" d="m370.26498 66.82709l32.503937 0" fill-rule="evenodd"/><path fill="#000000" fill-opacity="0.0" d="m370.26498 68.57243l32.503937 0" fill-rule="evenodd"/><path stroke="#000000" stroke-width="1.0" stroke-linejoin="round" stroke-linecap="butt" d="m370.26498 68.57243l32.503937 0" fill-rule="evenodd"/><path fill="#000000" fill-opacity="0.0" d="m370.26498 75.3407l32.503937 0" fill-rule="evenodd"/><path stroke="#000000" stroke-width="1.0" stroke-linejoin="round" stroke-linecap="butt" d="m370.26498 75.3407l32.503937 0" fill-rule="evenodd"/><path fill="#000000" fill-opacity="0.0" d="m370.26196 85.78035l32.503937 0" fill-rule="evenodd"/><path stroke="#000000" stroke-width="1.0" stroke-linejoin="round" stroke-linecap="butt" d="m370.26196 85.78035l32.503937 0" fill-rule="evenodd"/><path fill="#000000" fill-opacity="0.0" d="m370.25595 78.75059l32.503937 0" fill-rule="evenodd"/><path stroke="#000000" stroke-width="1.0" stroke-linejoin="round" stroke-linecap="butt" d="m370.25595 78.75059l32.503937 0" fill-rule="evenodd"/><path fill="#000000" fill-opacity="0.0" d="m370.26196 77.05295l32.503937 0" fill-rule="evenodd"/><path stroke="#000000" stroke-width="1.0" stroke-linejoin="round" stroke-linecap="butt" d="m370.26196 77.05295l32.503937 0" fill-rule="evenodd"/><path fill="#000000" fill-opacity="0.0" d="m370.25595 84.02559l32.503937 0" fill-rule="evenodd"/><path stroke="#000000" stroke-width="1.0" stroke-linejoin="round" stroke-linecap="butt" d="m370.25595 84.02559l32.503937 0" fill-rule="evenodd"/><path fill="#000000" fill-opacity="0.0" d="m370.26196 87.5565l32.503937 0" fill-rule="evenodd"/><path stroke="#000000" stroke-width="1.0" stroke-linejoin="round" stroke-linecap="butt" d="m370.26196 87.5565l32.503937 0" fill-rule="evenodd"/><path fill="#000000" fill-opacity="0.0" d="m370.26196 80.49446l32.503937 0" fill-rule="evenodd"/><path stroke="#000000" stroke-width="1.0" stroke-linejoin="round" stroke-linecap="butt" d="m370.26196 80.49446l32.503937 0" fill-rule="evenodd"/><path fill="#000000" fill-opacity="0.0" d="m370.26196 82.23981l32.503937 0" fill-rule="evenodd"/><path stroke="#000000" stroke-width="1.0" stroke-linejoin="round" stroke-linecap="butt" d="m370.26196 82.23981l32.503937 0" fill-rule="evenodd"/><path fill="#000000" fill-opacity="0.0" d="m370.26196 89.410774l32.503937 0" fill-rule="evenodd"/><path stroke="#000000" stroke-width="1.0" stroke-linejoin="round" stroke-linecap="butt" d="m370.26196 89.410774l32.503937 0" fill-rule="evenodd"/><path fill="#000000" fill-opacity="0.0" d="m90.10142 53.40943l10.614174 -33.574806" fill-rule="evenodd"/><path stroke="#000000" stroke-width="1.0" stroke-linejoin="round" stroke-linecap="butt" d="m90.10142 53.40943l10.614174 -33.574806" fill-rule="evenodd"/><path fill="#000000" fill-opacity="0.0" d="m40.4161 -9.764748l95.46456 0l0 36.97638l-95.46456 0z" fill-rule="evenodd"/><path fill="#000000" d="m75.61518 5.4465027l1.09375 -0.125q0.046875 0.375 0.265625 0.59375q0.234375 0.21875 0.546875 0.21875q0.34375 0 0.578125 -0.28125q0.234375 -0.28125 0.234375 -0.84375q0 -0.53125 -0.234375 -0.78125q-0.234375 -0.265625 -0.609375 -0.265625q-0.484375 0 -0.859375 0.40625l-0.890625 -0.125l0.5625 -2.984375l2.90625 0l0 1.0312499l-2.0625 0l-0.171875 0.96875q0.359375 -0.171875 0.75 -0.171875q0.71875 0 1.21875 0.53125q0.515625 0.53125 0.515625 1.375q0 0.703125 -0.40625 1.265625q-0.5625 0.75 -1.546875 0.75q-0.796875 0 -1.296875 -0.421875q-0.5 -0.421875 -0.59375 -1.140625zm7.2460938 1.46875l-1.109375 0l0 -4.140625q-0.59375 0.5625 -1.40625 0.828125l0 -0.984375q0.421875 -0.140625 0.921875 -0.53125q0.515625 -0.40624988 0.703125 -0.9218749l0.890625 0l0 5.75zm5.3398438 -1.015625l0 1.015625l-3.84375 0q0.0625 -0.578125 0.375 -1.09375q0.3125 -0.515625 1.234375 -1.375q0.734375 -0.6875 0.90625 -0.9375q0.234375 -0.34375 0.234375 -0.671875q0 -0.375 -0.203125 -0.5625q-0.203125 -0.203125 -0.546875 -0.203125q-0.34375 0 -0.546875 0.21875q-0.203125 0.203125 -0.234375 0.671875l-1.09375 -0.109375q0.09375 -0.9062499 0.609375 -1.2968749q0.515625 -0.390625 1.296875 -0.390625q0.84375 0 1.328125 0.453125q0.484375 0.45312488 0.484375 1.1406249q0 0.390625 -0.140625 0.734375q-0.140625 0.34375 -0.4375 0.734375q-0.203125 0.25 -0.71875 0.734375q-0.515625 0.46875 -0.65625 0.625q-0.140625 0.15625 -0.21875 0.3125l2.171875 0zm0.85546875 -0.515625l0 -1.09375l2.15625 0l0 1.09375l-2.15625 0zm2.7421875 1.53125l0 -5.734375l1.09375 0l0 2.0625q0.515625 -0.578125 1.203125 -0.578125q0.765625 0 1.25 0.5625q0.5 0.546875 0.5 1.5625q0 1.0625 -0.515625 1.640625q-0.5 0.578125 -1.21875 0.578125q-0.359375 0 -0.703125 -0.171875q-0.34375 -0.1875 -0.59375 -0.53125l0 0.609375l-1.015625 0zm1.09375 -2.171875q0 0.65625 0.203125 0.953125q0.28125 0.4375 0.75 0.4375q0.359375 0 0.609375 -0.296875q0.265625 -0.3125 0.265625 -0.984375q0 -0.71875 -0.265625 -1.03125q-0.25 -0.3125 -0.65625 -0.3125q-0.390625 0 -0.65625 0.3125q-0.25 0.296875 -0.25 0.921875zm3.8398438 -2.546875l0 -1.0156249l1.09375 0l0 1.0156249l-1.09375 0zm0 4.71875l0 -4.15625l1.09375 0l0 4.15625l-1.09375 0zm4.1289062 -4.15625l0 0.875l-0.75 0l0 1.671875q0 0.515625 0.015625 0.609375q0.015625 0.078125 0.09375 0.140625q0.078125 0.046875 0.1875 0.046875q0.15625 0 0.4375 -0.109375l0.09375 0.84375q-0.375 0.171875 -0.859375 0.171875q-0.296875 0 -0.546875 -0.09375q-0.234375 -0.109375 -0.34375 -0.265625q-0.109375 -0.15625 -0.15625 -0.421875q-0.03125 -0.203125 -0.03125 -0.78125l0 -1.8125l-0.5 0l0 -0.875l0.5 0l0 -0.8124999l1.109375 -0.640625l0 1.4531249l0.75 0z" fill-rule="nonzero"/><path fill="#000000" d="m62.622993 16.915253l-1.109375 0l0 -4.140625q-0.59375 0.5625 -1.40625 0.828125l0 -0.984375q0.421875 -0.140625 0.921875 -0.53125q0.515625 -0.40625 0.703125 -0.921875l0.890625 0l0 5.75zm5.3554688 -4.328125l-1.0625 0.125q-0.046875 -0.328125 -0.21875 -0.484375q-0.15625 -0.15625 -0.40625 -0.15625q-0.359375 0 -0.59375 0.3125q-0.234375 0.3125 -0.296875 1.296875q0.40625 -0.484375 1.015625 -0.484375q0.6875 0 1.171875 0.53125q0.5 0.515625 0.5 1.34375q0 0.875 -0.515625 1.40625q-0.515625 0.53125 -1.328125 0.53125q-0.875 0 -1.4375 -0.671875q-0.546875 -0.671875 -0.546875 -2.203125q0 -1.578125 0.578125 -2.265625q0.578125 -0.703125 1.515625 -0.703125q0.65625 0 1.078125 0.375q0.421875 0.359375 0.546875 1.046875zm-2.484375 2.390625q0 0.546875 0.234375 0.84375q0.25 0.28125 0.5625 0.28125q0.3125 0 0.515625 -0.234375q0.203125 -0.25 0.203125 -0.78125q0 -0.5625 -0.21875 -0.8125q-0.21875 -0.265625 -0.546875 -0.265625q-0.3125 0 -0.53125 0.25q-0.21875 0.234375 -0.21875 0.71875zm5.390625 0.421875l1.0625 -0.140625q0.0625 0.40625 0.28125 0.625q0.21875 0.21875 0.53125 0.21875q0.34375 0 0.578125 -0.25q0.234375 -0.265625 0.234375 -0.703125q0 -0.421875 -0.234375 -0.65625q-0.21875 -0.25 -0.53125 -0.25q-0.21875 0 -0.5 0.09375l0.109375 -0.90625q0.453125 0.015625 0.6875 -0.1875q0.234375 -0.203125 0.234375 -0.546875q0 -0.28125 -0.171875 -0.453125q-0.171875 -0.171875 -0.453125 -0.171875q-0.28125 0 -0.484375 0.203125q-0.203125 0.1875 -0.25 0.5625l-1.0 -0.171875q0.09375 -0.53125 0.3125 -0.828125q0.21875 -0.3125 0.59375 -0.484375q0.375 -0.1875 0.859375 -0.1875q0.796875 0 1.296875 0.515625q0.390625 0.421875 0.390625 0.953125q0 0.75 -0.8125 1.203125q0.484375 0.109375 0.78125 0.484375q0.296875 0.359375 0.296875 0.875q0 0.75 -0.5625 1.28125q-0.546875 0.53125 -1.359375 0.53125q-0.78125 0 -1.296875 -0.4375q-0.5 -0.453125 -0.59375 -1.171875zm8.199219 0.5l0 1.015625l-3.84375 0q0.0625 -0.578125 0.375 -1.09375q0.3125 -0.515625 1.234375 -1.375q0.734375 -0.6875 0.90625 -0.9375q0.234375 -0.34375 0.234375 -0.671875q0 -0.375 -0.203125 -0.5625q-0.203125 -0.203125 -0.546875 -0.203125q-0.34375 0 -0.546875 0.21875q-0.203125 0.203125 -0.234375 0.671875l-1.09375 -0.109375q0.09375 -0.90625 0.609375 -1.296875q0.515625 -0.390625 1.296875 -0.390625q0.84375 0 1.328125 0.453125q0.484375 0.453125 0.484375 1.140625q0 0.390625 -0.140625 0.734375q-0.140625 0.34375 -0.4375 0.734375q-0.203125 0.25 -0.71875 0.734375q-0.515625 0.46875 -0.65625 0.625q-0.140625 0.15625 -0.21875 0.3125l2.171875 0zm0.85546875 -0.515625l0 -1.09375l2.15625 0l0 1.09375l-2.15625 0zm2.7421875 1.53125l0 -5.734375l1.09375 0l0 2.0625q0.515625 -0.578125 1.203125 -0.578125q0.765625 0 1.25 0.5625q0.5 0.546875 0.5 1.5625q0 1.0625 -0.515625 1.640625q-0.5 0.578125 -1.21875 0.578125q-0.359375 0 -0.703125 -0.171875q-0.34375 -0.1875 -0.59375 -0.53125l0 0.609375l-1.015625 0zm1.09375 -2.171875q0 0.65625 0.203125 0.953125q0.28125 0.4375 0.75 0.4375q0.359375 0 0.609375 -0.296875q0.265625 -0.3125 0.265625 -0.984375q0 -0.71875 -0.265625 -1.03125q-0.25 -0.3125 -0.65625 -0.3125q-0.390625 0 -0.65625 0.3125q-0.25 0.296875 -0.25 0.921875zm3.8398438 -2.546875l0 -1.015625l1.09375 0l0 1.015625l-1.09375 0zm0 4.71875l0 -4.15625l1.09375 0l0 4.15625l-1.09375 0zm4.1289062 -4.15625l0 0.875l-0.75 0l0 1.671875q0 0.515625 0.015625 0.609375q0.015625 0.078125 0.09375 0.140625q0.078125 0.046875 0.1875 0.046875q0.15625 0 0.4375 -0.109375l0.09375 0.84375q-0.375 0.171875 -0.859375 0.171875q-0.296875 0 -0.546875 -0.09375q-0.234375 -0.109375 -0.34375 -0.265625q-0.109375 -0.15625 -0.15625 -0.421875q-0.03125 -0.203125 -0.03125 -0.78125l0 -1.8125l-0.5 0l0 -0.875l0.5 0l0 -0.8125l1.109375 -0.640625l0 1.453125l0.75 0zm5.3867188 2.828125l1.09375 0.1875q-0.21875 0.609375 -0.671875 0.921875q-0.453125 0.3125 -1.140625 0.3125q-1.078125 0 -1.59375 -0.703125q-0.421875 -0.578125 -0.421875 -1.4375q0 -1.03125 0.53125 -1.609375q0.546875 -0.59375 1.375 -0.59375q0.921875 0 1.453125 0.625q0.546875 0.609375 0.515625 1.859375l-2.75 0q0.015625 0.5 0.265625 0.765625q0.265625 0.265625 0.640625 0.265625q0.25 0 0.421875 -0.140625q0.1875 -0.140625 0.28125 -0.453125zm0.0625 -1.109375q-0.015625 -0.46875 -0.25 -0.71875q-0.234375 -0.25 -0.578125 -0.25q-0.359375 0 -0.59375 0.265625q-0.234375 0.265625 -0.21875 0.703125l1.640625 0zm1.9804688 2.4375l0 -5.734375l1.09375 0l0 5.734375l-1.09375 0zm4.6289062 -1.328125l1.09375 0.1875q-0.21875 0.609375 -0.671875 0.921875q-0.453125 0.3125 -1.140625 0.3125q-1.078125 0 -1.59375 -0.703125q-0.421875 -0.578125 -0.421875 -1.4375q0 -1.03125 0.53125 -1.609375q0.546875 -0.59375 1.375 -0.59375q0.921875 0 1.453125 0.625q0.546875 0.609375 0.515625 1.859375l-2.75 0q0.015625 0.5 0.265625 0.765625q0.265625 0.265625 0.640625 0.265625q0.25 0 0.421875 -0.140625q0.1875 -0.140625 0.28125 -0.453125zm0.0625 -1.109375q-0.015625 -0.46875 -0.25 -0.71875q-0.234375 -0.25 -0.578125 -0.25q-0.359375 0 -0.59375 0.265625q-0.234375 0.265625 -0.21875 0.703125l1.640625 0zm1.9023438 -1.71875l1.0 0l0 0.578125q0.546875 -0.671875 1.296875 -0.671875q0.40625 0 0.6875 0.171875q0.296875 0.15625 0.484375 0.5q0.28125 -0.34375 0.59375 -0.5q0.3125 -0.171875 0.671875 -0.171875q0.453125 0 0.765625 0.1875q0.328125 0.1875 0.484375 0.546875q0.109375 0.265625 0.109375 0.859375l0 2.65625l-1.09375 0l0 -2.375q0 -0.609375 -0.109375 -0.796875q-0.15625 -0.234375 -0.46875 -0.234375q-0.234375 0 -0.4375 0.140625q-0.203125 0.140625 -0.296875 0.421875q-0.09375 0.265625 -0.09375 0.84375l0 2.0l-1.09375 0l0 -2.28125q0 -0.59375 -0.0625 -0.765625q-0.046875 -0.1875 -0.171875 -0.265625q-0.125 -0.09375 -0.34375 -0.09375q-0.25 0 -0.453125 0.140625q-0.203125 0.140625 -0.296875 0.40625q-0.078125 0.25 -0.078125 0.84375l0 2.015625l-1.09375 0l0 -4.15625zm6.8007812 2.96875l1.109375 -0.171875q0.0625 0.328125 0.28125 0.5q0.21875 0.15625 0.59375 0.15625q0.4375 0 0.640625 -0.15625q0.15625 -0.109375 0.15625 -0.296875q0 -0.125 -0.078125 -0.203125q-0.09375 -0.078125 -0.375 -0.140625q-1.328125 -0.296875 -1.6875 -0.53125q-0.484375 -0.34375 -0.484375 -0.9375q0 -0.546875 0.421875 -0.90625q0.421875 -0.375 1.328125 -0.375q0.84375 0 1.25 0.28125q0.421875 0.28125 0.578125 0.828125l-1.03125 0.1875q-0.0625 -0.25 -0.25 -0.375q-0.1875 -0.125 -0.53125 -0.125q-0.4375 0 -0.625 0.125q-0.125 0.078125 -0.125 0.21875q0 0.109375 0.109375 0.203125q0.15625 0.109375 1.03125 0.3125q0.875 0.1875 1.21875 0.484375q0.34375 0.28125 0.34375 0.8125q0 0.5625 -0.484375 0.984375q-0.46875 0.40625 -1.40625 0.40625q-0.84375 0 -1.34375 -0.34375q-0.484375 -0.34375 -0.640625 -0.9375z" fill-rule="nonzero"/></g></svg>