<?xml version="1.0" encoding="UTF-8"?>
<!DOCTYPE svg PUBLIC "-//W3C//DTD SVG 1.1//EN" "http://www.w3.org/Graphics/SVG/1.1/DTD/svg11.dtd">
<svg xmlns="http://www.w3.org/2000/svg" xmlns:xlink="http://www.w3.org/1999/xlink" version="1.1" width="322px" height="122px" viewBox="-0.5 -0.5 322 122" style="background-color: rgb(255, 255, 255);"><defs/><g><rect x="0" y="0" width="20" height="20" fill="#dae8fc" stroke="#6c8ebf" pointer-events="all"/><rect x="20" y="0" width="20" height="20" fill="#dae8fc" stroke="#6c8ebf" pointer-events="all"/><rect x="40" y="0" width="20" height="20" fill="#dae8fc" stroke="#6c8ebf" pointer-events="all"/><rect x="60" y="0" width="20" height="20" fill="#f8cecc" stroke="#b85450" pointer-events="all"/><rect x="80" y="0" width="20" height="20" fill="#f8cecc" stroke="#b85450" pointer-events="all"/><rect x="100" y="0" width="20" height="20" fill="#f8cecc" stroke="#b85450" pointer-events="all"/><rect x="0" y="20" width="20" height="20" fill="#dae8fc" stroke="#6c8ebf" pointer-events="all"/><rect x="20" y="20" width="20" height="20" fill="#dae8fc" stroke="#6c8ebf" pointer-events="all"/><rect x="40" y="20" width="20" height="20" fill="#dae8fc" stroke="#6c8ebf" pointer-events="all"/><rect x="60" y="20" width="20" height="20" fill="#f8cecc" stroke="#b85450" pointer-events="all"/><rect x="80" y="20" width="20" height="20" fill="#f8cecc" stroke="#b85450" pointer-events="all"/><rect x="100" y="20" width="20" height="20" fill="#f8cecc" stroke="#b85450" pointer-events="all"/><rect x="0" y="40" width="20" height="20" fill="#dae8fc" stroke="#6c8ebf" pointer-events="all"/><rect x="20" y="40" width="20" height="20" fill="#dae8fc" stroke="#6c8ebf" pointer-events="all"/><rect x="40" y="40" width="20" height="20" fill="#dae8fc" stroke="#6c8ebf" pointer-events="all"/><rect x="60" y="40" width="20" height="20" fill="#f8cecc" stroke="#b85450" pointer-events="all"/><rect x="80" y="40" width="20" height="20" fill="#f8cecc" stroke="#b85450" pointer-events="all"/><rect x="100" y="40" width="20" height="20" fill="#f8cecc" stroke="#b85450" pointer-events="all"/><rect x="0" y="60" width="20" height="20" fill="#fff2cc" stroke="#d6b656" pointer-events="all"/><rect x="20" y="60" width="20" height="20" fill="#fff2cc" stroke="#d6b656" pointer-events="all"/><rect x="40" y="60" width="20" height="20" fill="#fff2cc" stroke="#d6b656" pointer-events="all"/><rect x="60" y="60" width="20" height="20" fill="#d5e8d4" stroke="#82b366" pointer-events="all"/><rect x="80" y="60" width="20" height="20" fill="#d5e8d4" stroke="#82b366" pointer-events="all"/><rect x="100" y="60" width="20" height="20" fill="#d5e8d4" stroke="#82b366" pointer-events="all"/><rect x="0" y="80" width="20" height="20" fill="#fff2cc" stroke="#d6b656" pointer-events="all"/><rect x="20" y="80" width="20" height="20" fill="#fff2cc" stroke="#d6b656" pointer-events="all"/><rect x="40" y="80" width="20" height="20" fill="#fff2cc" stroke="#d6b656" pointer-events="all"/><rect x="60" y="80" width="20" height="20" fill="#d5e8d4" stroke="#82b366" pointer-events="all"/><rect x="80" y="80" width="20" height="20" fill="#d5e8d4" stroke="#82b366" pointer-events="all"/><rect x="100" y="80" width="20" height="20" fill="#d5e8d4" stroke="#82b366" pointer-events="all"/><rect x="0" y="100" width="20" height="20" fill="#fff2cc" stroke="#d6b656" pointer-events="all"/><rect x="20" y="100" width="20" height="20" fill="#fff2cc" stroke="#d6b656" pointer-events="all"/><rect x="40" y="100" width="20" height="20" fill="#fff2cc" stroke="#d6b656" pointer-events="all"/><rect x="60" y="100" width="20" height="20" fill="#d5e8d4" stroke="#82b366" pointer-events="all"/><rect x="80" y="100" width="20" height="20" fill="#d5e8d4" stroke="#82b366" pointer-events="all"/><rect x="100" y="100" width="20" height="20" fill="#d5e8d4" stroke="#82b366" pointer-events="all"/><rect x="200" y="0" width="60" height="60" fill="#dae8fc" stroke="#6c8ebf" pointer-events="all"/><rect x="260" y="0" width="60" height="60" fill="#f8cecc" stroke="#b85450" pointer-events="all"/><rect x="200" y="60" width="60" height="60" fill="#fff2cc" stroke="#d6b656" pointer-events="all"/><rect x="260" y="60" width="60" height="60" fill="#d5e8d4" stroke="#82b366" pointer-events="all"/><path d="M 130.5 65 L 130.5 55 L 170.5 55 L 170.5 44.5 L 189.5 60 L 170.5 75.5 L 170.5 65 Z" fill="none" stroke="#000000" stroke-linejoin="round" stroke-miterlimit="10" pointer-events="all"/></g></svg>